<mxfile host="Electron" modified="2023-12-11T03:22:23.314Z" agent="Mozilla/5.0 (Macintosh; Intel Mac OS X 10_15_7) AppleWebKit/537.36 (KHTML, like Gecko) draw.io/22.1.2 Chrome/114.0.5735.289 Electron/25.9.4 Safari/537.36" etag="kbyu_VKK1MsDLymzwZl7" version="22.1.2" type="device">
  <diagram name="Page-1" id="vX26BRCTLcv1RTL9x_21">
    <mxGraphModel dx="1114" dy="999" grid="1" gridSize="10" guides="1" tooltips="1" connect="1" arrows="1" fold="1" page="1" pageScale="1" pageWidth="827" pageHeight="1169" math="0" shadow="0">
      <root>
        <mxCell id="0" />
        <mxCell id="1" parent="0" />
        <UserObject label="" tags="背景" id="qSWOto1qGnR7KdLFDjG3-1">
          <mxCell style="vsdxID=1;fillColor=none;gradientColor=none;points=[[0.06,1,0],[0.13,1,0],[0.19,1,0],[0.25,1,0],[0.31,1,0],[0.37,1,0],[0.44,1,0],[0.5,1,0],[0.56,1,0],[0.63,1,0],[0.69,1,0],[0.75,1,0],[0.81,1,0],[0.88,1,0],[0.94,1,0],[0.06,0,0],[0.13,0,0],[0.19,0,0],[0.25,0,0],[0.31,0,0],[0.37,0,0],[0.44,0,0],[0.5,0,0],[0.56,0,0],[0.63,0,0],[0.69,0,0],[0.75,0,0],[0.81,0,0],[0.88,0,0],[0.94,0,0]];labelBackgroundColor=none;rounded=0;strokeColor=none;html=1;whiteSpace=wrap;" vertex="1" parent="1">
            <mxGeometry x="1353" y="526" width="250" height="234" as="geometry" />
          </mxCell>
        </UserObject>
        <mxCell id="qSWOto1qGnR7KdLFDjG3-2" style="vsdxID=2;fillColor=#d6d6d6;gradientColor=none;fillOpacity=0;shape=stencil(nZBLDoAgDERP0z3SIyjew0SURgSD+Lu9kMZoXLhwN9O+tukAlrNpJg1SzDH4QW/URgNYgZTkjA4UkwJUgGXng+6DX1zLfmoymdXo17xh5zmRJ6Q42BWCfc2oJfdAr+Yv+AP9Cb7OJ3H/2JG1HNGz/84klThPVCc=);strokeColor=#323232;strokeWidth=2;points=[[0.06,1,0],[0.13,1,0],[0.19,1,0],[0.25,1,0],[0.31,1,0],[0.37,1,0],[0.44,1,0],[0.5,1,0],[0.56,1,0],[0.63,1,0],[0.69,1,0],[0.75,1,0],[0.81,1,0],[0.88,1,0],[0.94,1,0],[0.06,0,0],[0.13,0,0],[0.19,0,0],[0.25,0,0],[0.31,0,0],[0.37,0,0],[0.44,0,0],[0.5,0,0],[0.56,0,0],[0.63,0,0],[0.69,0,0],[0.75,0,0],[0.81,0,0],[0.88,0,0],[0.94,0,0]];labelBackgroundColor=none;rounded=0;html=1;whiteSpace=wrap;" vertex="1" parent="qSWOto1qGnR7KdLFDjG3-1">
          <mxGeometry width="250" height="234" as="geometry" />
        </mxCell>
        <mxCell id="qSWOto1qGnR7KdLFDjG3-3" value="&lt;div style=&quot;font-size: 1px&quot;&gt;&lt;p style=&quot;text-align:center;margin-left:0;margin-right:0;margin-top:0px;margin-bottom:0px;text-indent:0;vertical-align:middle;direction:ltr;&quot;&gt;&lt;font style=&quot;font-size:16px;font-family:0;color:#323232;direction:ltr;letter-spacing:0px;line-height:120%;opacity:1&quot;&gt;EventCache&lt;/font&gt;&lt;/p&gt;&lt;/div&gt;" style="verticalAlign=middle;align=center;overflow=width;vsdxID=3;fillColor=#d6d6d6;gradientColor=none;shape=stencil(nZBLDoAgDERP0z3SIyjew0SURgSD+Lu9kMZoXLhwN9O+tukAlrNpJg1SzDH4QW/URgNYgZTkjA4UkwJUgGXng+6DX1zLfmoymdXo17xh5zmRJ6Q42BWCfc2oJfdAr+Yv+AP9Cb7OJ3H/2JG1HNGz/84klThPVCc=);strokeColor=#323232;strokeWidth=2;points=[[0.06,1,0],[0.13,1,0],[0.19,1,0],[0.25,1,0],[0.31,1,0],[0.37,1,0],[0.44,1,0],[0.5,1,0],[0.56,1,0],[0.63,1,0],[0.69,1,0],[0.75,1,0],[0.81,1,0],[0.88,1,0],[0.94,1,0],[0.06,0,0],[0.13,0,0],[0.19,0,0],[0.25,0,0],[0.31,0,0],[0.37,0,0],[0.44,0,0],[0.5,0,0],[0.56,0,0],[0.63,0,0],[0.69,0,0],[0.75,0,0],[0.81,0,0],[0.88,0,0],[0.94,0,0]];labelBackgroundColor=none;rounded=0;html=1;whiteSpace=wrap;" vertex="1" parent="qSWOto1qGnR7KdLFDjG3-1">
          <mxGeometry width="250" height="40" as="geometry" />
        </mxCell>
        <UserObject label="" tags="背景" id="qSWOto1qGnR7KdLFDjG3-4">
          <mxCell style="vsdxID=4;fillColor=none;gradientColor=none;points=[[0.06,1,0],[0.13,1,0],[0.19,1,0],[0.25,1,0],[0.31,1,0],[0.37,1,0],[0.44,1,0],[0.5,1,0],[0.56,1,0],[0.63,1,0],[0.69,1,0],[0.75,1,0],[0.81,1,0],[0.88,1,0],[0.94,1,0],[0.06,0,0],[0.13,0,0],[0.19,0,0],[0.25,0,0],[0.31,0,0],[0.37,0,0],[0.44,0,0],[0.5,0,0],[0.56,0,0],[0.63,0,0],[0.69,0,0],[0.75,0,0],[0.81,0,0],[0.88,0,0],[0.94,0,0]];labelBackgroundColor=none;rounded=0;strokeColor=none;html=1;whiteSpace=wrap;" vertex="1" parent="1">
            <mxGeometry x="1353" y="216" width="250" height="239" as="geometry" />
          </mxCell>
        </UserObject>
        <mxCell id="qSWOto1qGnR7KdLFDjG3-5" style="vsdxID=5;fillColor=#d6d6d6;gradientColor=none;fillOpacity=0;shape=stencil(nZBLDoAgDERP0z3SIyjew0SURgSD+Lu9kMZoXLhwN9O+tukAlrNpJg1SzDH4QW/URgNYgZTkjA4UkwJUgGXng+6DX1zLfmoymdXo17xh5zmRJ6Q42BWCfc2oJfdAr+Yv+AP9Cb7OJ3H/2JG1HNGz/84klThPVCc=);strokeColor=#323232;strokeWidth=2;points=[[0.06,1,0],[0.13,1,0],[0.19,1,0],[0.25,1,0],[0.31,1,0],[0.37,1,0],[0.44,1,0],[0.5,1,0],[0.56,1,0],[0.63,1,0],[0.69,1,0],[0.75,1,0],[0.81,1,0],[0.88,1,0],[0.94,1,0],[0.06,0,0],[0.13,0,0],[0.19,0,0],[0.25,0,0],[0.31,0,0],[0.37,0,0],[0.44,0,0],[0.5,0,0],[0.56,0,0],[0.63,0,0],[0.69,0,0],[0.75,0,0],[0.81,0,0],[0.88,0,0],[0.94,0,0]];labelBackgroundColor=none;rounded=0;html=1;whiteSpace=wrap;" vertex="1" parent="qSWOto1qGnR7KdLFDjG3-4">
          <mxGeometry width="250" height="239" as="geometry" />
        </mxCell>
        <mxCell id="qSWOto1qGnR7KdLFDjG3-6" value="&lt;div style=&quot;font-size: 1px&quot;&gt;&lt;p style=&quot;text-align:center;margin-left:0;margin-right:0;margin-top:0px;margin-bottom:0px;text-indent:0;vertical-align:middle;direction:ltr;&quot;&gt;&lt;font style=&quot;font-size:16px;font-family:0;color:#323232;direction:ltr;letter-spacing:0px;line-height:120%;opacity:1&quot;&gt;JedisClusterUtil&lt;/font&gt;&lt;/p&gt;&lt;/div&gt;" style="verticalAlign=middle;align=center;overflow=width;vsdxID=6;fillColor=#d6d6d6;gradientColor=none;shape=stencil(nZBLDoAgDERP0z3SIyjew0SURgSD+Lu9kMZoXLhwN9O+tukAlrNpJg1SzDH4QW/URgNYgZTkjA4UkwJUgGXng+6DX1zLfmoymdXo17xh5zmRJ6Q42BWCfc2oJfdAr+Yv+AP9Cb7OJ3H/2JG1HNGz/84klThPVCc=);strokeColor=#323232;strokeWidth=2;points=[[0.06,1,0],[0.13,1,0],[0.19,1,0],[0.25,1,0],[0.31,1,0],[0.37,1,0],[0.44,1,0],[0.5,1,0],[0.56,1,0],[0.63,1,0],[0.69,1,0],[0.75,1,0],[0.81,1,0],[0.88,1,0],[0.94,1,0],[0.06,0,0],[0.13,0,0],[0.19,0,0],[0.25,0,0],[0.31,0,0],[0.37,0,0],[0.44,0,0],[0.5,0,0],[0.56,0,0],[0.63,0,0],[0.69,0,0],[0.75,0,0],[0.81,0,0],[0.88,0,0],[0.94,0,0]];labelBackgroundColor=none;rounded=0;html=1;whiteSpace=wrap;" vertex="1" parent="qSWOto1qGnR7KdLFDjG3-4">
          <mxGeometry width="250" height="40" as="geometry" />
        </mxCell>
        <UserObject label="" tags="背景" id="qSWOto1qGnR7KdLFDjG3-7">
          <mxCell style="vsdxID=7;fillColor=none;gradientColor=none;points=[[0.06,1,0],[0.13,1,0],[0.19,1,0],[0.25,1,0],[0.31,1,0],[0.37,1,0],[0.44,1,0],[0.5,1,0],[0.56,1,0],[0.63,1,0],[0.69,1,0],[0.75,1,0],[0.81,1,0],[0.88,1,0],[0.94,1,0],[0.06,0,0],[0.13,0,0],[0.19,0,0],[0.25,0,0],[0.31,0,0],[0.37,0,0],[0.44,0,0],[0.5,0,0],[0.56,0,0],[0.63,0,0],[0.69,0,0],[0.75,0,0],[0.81,0,0],[0.88,0,0],[0.94,0,0]];labelBackgroundColor=none;rounded=0;strokeColor=none;html=1;whiteSpace=wrap;" vertex="1" parent="1">
            <mxGeometry x="1645" y="216" width="250" height="383" as="geometry" />
          </mxCell>
        </UserObject>
        <mxCell id="qSWOto1qGnR7KdLFDjG3-8" style="vsdxID=8;fillColor=#d6d6d6;gradientColor=none;fillOpacity=0;shape=stencil(nZBLDoAgDERP0z3SIyjew0SURgSD+Lu9kMZoXLhwN9O+tukAlrNpJg1SzDH4QW/URgNYgZTkjA4UkwJUgGXng+6DX1zLfmoymdXo17xh5zmRJ6Q42BWCfc2oJfdAr+Yv+AP9Cb7OJ3H/2JG1HNGz/84klThPVCc=);strokeColor=#323232;strokeWidth=2;points=[[0.06,1,0],[0.13,1,0],[0.19,1,0],[0.25,1,0],[0.31,1,0],[0.37,1,0],[0.44,1,0],[0.5,1,0],[0.56,1,0],[0.63,1,0],[0.69,1,0],[0.75,1,0],[0.81,1,0],[0.88,1,0],[0.94,1,0],[0.06,0,0],[0.13,0,0],[0.19,0,0],[0.25,0,0],[0.31,0,0],[0.37,0,0],[0.44,0,0],[0.5,0,0],[0.56,0,0],[0.63,0,0],[0.69,0,0],[0.75,0,0],[0.81,0,0],[0.88,0,0],[0.94,0,0]];labelBackgroundColor=none;rounded=0;html=1;whiteSpace=wrap;" vertex="1" parent="qSWOto1qGnR7KdLFDjG3-7">
          <mxGeometry width="250" height="383" as="geometry" />
        </mxCell>
        <mxCell id="qSWOto1qGnR7KdLFDjG3-9" value="&lt;div style=&quot;font-size: 1px&quot;&gt;&lt;p style=&quot;text-align:center;margin-left:0;margin-right:0;margin-top:0px;margin-bottom:0px;text-indent:0;vertical-align:middle;direction:ltr;&quot;&gt;&lt;font style=&quot;font-size:16px;font-family:0;color:#323232;direction:ltr;letter-spacing:0px;line-height:120%;opacity:1&quot;&gt;ConfigCenter&lt;/font&gt;&lt;/p&gt;&lt;/div&gt;" style="verticalAlign=middle;align=center;overflow=width;vsdxID=9;fillColor=#d6d6d6;gradientColor=none;shape=stencil(nZBLDoAgDERP0z3SIyjew0SURgSD+Lu9kMZoXLhwN9O+tukAlrNpJg1SzDH4QW/URgNYgZTkjA4UkwJUgGXng+6DX1zLfmoymdXo17xh5zmRJ6Q42BWCfc2oJfdAr+Yv+AP9Cb7OJ3H/2JG1HNGz/84klThPVCc=);strokeColor=#323232;strokeWidth=2;points=[[0.06,1,0],[0.13,1,0],[0.19,1,0],[0.25,1,0],[0.31,1,0],[0.37,1,0],[0.44,1,0],[0.5,1,0],[0.56,1,0],[0.63,1,0],[0.69,1,0],[0.75,1,0],[0.81,1,0],[0.88,1,0],[0.94,1,0],[0.06,0,0],[0.13,0,0],[0.19,0,0],[0.25,0,0],[0.31,0,0],[0.37,0,0],[0.44,0,0],[0.5,0,0],[0.56,0,0],[0.63,0,0],[0.69,0,0],[0.75,0,0],[0.81,0,0],[0.88,0,0],[0.94,0,0]];labelBackgroundColor=none;rounded=0;html=1;whiteSpace=wrap;" vertex="1" parent="qSWOto1qGnR7KdLFDjG3-7">
          <mxGeometry width="250" height="40" as="geometry" />
        </mxCell>
        <UserObject label="" tags="背景" id="qSWOto1qGnR7KdLFDjG3-10">
          <mxCell style="vsdxID=10;fillColor=none;gradientColor=none;points=[[0.06,1,0],[0.13,1,0],[0.19,1,0],[0.25,1,0],[0.31,1,0],[0.37,1,0],[0.44,1,0],[0.5,1,0],[0.56,1,0],[0.63,1,0],[0.69,1,0],[0.75,1,0],[0.81,1,0],[0.88,1,0],[0.94,1,0],[0.06,0,0],[0.13,0,0],[0.19,0,0],[0.25,0,0],[0.31,0,0],[0.37,0,0],[0.44,0,0],[0.5,0,0],[0.56,0,0],[0.63,0,0],[0.69,0,0],[0.75,0,0],[0.81,0,0],[0.88,0,0],[0.94,0,0]];labelBackgroundColor=none;rounded=0;strokeColor=none;html=1;whiteSpace=wrap;" vertex="1" parent="1">
            <mxGeometry x="601" y="216" width="604" height="540" as="geometry" />
          </mxCell>
        </UserObject>
        <mxCell id="qSWOto1qGnR7KdLFDjG3-11" style="vsdxID=11;fillColor=#d6d6d6;gradientColor=none;fillOpacity=0;shape=stencil(nZBLDoAgDERP0z3SIyjew0SURgSD+Lu9kMZoXLhwN9O+tukAlrNpJg1SzDH4QW/URgNYgZTkjA4UkwJUgGXng+6DX1zLfmoymdXo17xh5zmRJ6Q42BWCfc2oJfdAr+Yv+AP9Cb7OJ3H/2JG1HNGz/84klThPVCc=);strokeColor=#323232;strokeWidth=2;points=[[0.06,1,0],[0.13,1,0],[0.19,1,0],[0.25,1,0],[0.31,1,0],[0.37,1,0],[0.44,1,0],[0.5,1,0],[0.56,1,0],[0.63,1,0],[0.69,1,0],[0.75,1,0],[0.81,1,0],[0.88,1,0],[0.94,1,0],[0.06,0,0],[0.13,0,0],[0.19,0,0],[0.25,0,0],[0.31,0,0],[0.37,0,0],[0.44,0,0],[0.5,0,0],[0.56,0,0],[0.63,0,0],[0.69,0,0],[0.75,0,0],[0.81,0,0],[0.88,0,0],[0.94,0,0]];labelBackgroundColor=none;rounded=0;html=1;whiteSpace=wrap;" vertex="1" parent="qSWOto1qGnR7KdLFDjG3-10">
          <mxGeometry width="604" height="540" as="geometry" />
        </mxCell>
        <mxCell id="qSWOto1qGnR7KdLFDjG3-12" value="&lt;div style=&quot;font-size: 1px&quot;&gt;&lt;p style=&quot;text-align:center;margin-left:0;margin-right:0;margin-top:0px;margin-bottom:0px;text-indent:0;vertical-align:middle;direction:ltr;&quot;&gt;&lt;font style=&quot;font-size:16px;font-family:0;color:#323232;direction:ltr;letter-spacing:0px;line-height:120%;opacity:1&quot;&gt;MainTask&lt;br/&gt;&lt;/font&gt;&lt;/p&gt;&lt;/div&gt;" style="verticalAlign=middle;align=center;overflow=width;vsdxID=12;fillColor=#d6d6d6;gradientColor=none;shape=stencil(nZBLDoAgDERP0z3SIyjew0SURgSD+Lu9kMZoXLhwN9O+tukAlrNpJg1SzDH4QW/URgNYgZTkjA4UkwJUgGXng+6DX1zLfmoymdXo17xh5zmRJ6Q42BWCfc2oJfdAr+Yv+AP9Cb7OJ3H/2JG1HNGz/84klThPVCc=);strokeColor=#323232;strokeWidth=2;points=[[0.06,1,0],[0.13,1,0],[0.19,1,0],[0.25,1,0],[0.31,1,0],[0.37,1,0],[0.44,1,0],[0.5,1,0],[0.56,1,0],[0.63,1,0],[0.69,1,0],[0.75,1,0],[0.81,1,0],[0.88,1,0],[0.94,1,0],[0.06,0,0],[0.13,0,0],[0.19,0,0],[0.25,0,0],[0.31,0,0],[0.37,0,0],[0.44,0,0],[0.5,0,0],[0.56,0,0],[0.63,0,0],[0.69,0,0],[0.75,0,0],[0.81,0,0],[0.88,0,0],[0.94,0,0]];labelBackgroundColor=none;rounded=0;html=1;whiteSpace=wrap;" vertex="1" parent="qSWOto1qGnR7KdLFDjG3-10">
          <mxGeometry width="604" height="40" as="geometry" />
        </mxCell>
        <UserObject label="" tags="背景" id="qSWOto1qGnR7KdLFDjG3-13">
          <mxCell style="vsdxID=13;fillColor=none;gradientColor=none;points=[[0.06,1,0],[0.13,1,0],[0.19,1,0],[0.25,1,0],[0.31,1,0],[0.37,1,0],[0.44,1,0],[0.5,1,0],[0.56,1,0],[0.63,1,0],[0.69,1,0],[0.75,1,0],[0.81,1,0],[0.88,1,0],[0.94,1,0],[0.06,0,0],[0.13,0,0],[0.19,0,0],[0.25,0,0],[0.31,0,0],[0.37,0,0],[0.44,0,0],[0.5,0,0],[0.56,0,0],[0.63,0,0],[0.69,0,0],[0.75,0,0],[0.81,0,0],[0.88,0,0],[0.94,0,0]];labelBackgroundColor=none;rounded=0;strokeColor=none;html=1;whiteSpace=wrap;" vertex="1" parent="1">
            <mxGeometry x="257" y="293" width="250" height="330" as="geometry" />
          </mxCell>
        </UserObject>
        <mxCell id="qSWOto1qGnR7KdLFDjG3-14" style="vsdxID=14;fillColor=#d6d6d6;gradientColor=none;fillOpacity=0;shape=stencil(nZBLDoAgDERP0z3SIyjew0SURgSD+Lu9kMZoXLhwN9O+tukAlrNpJg1SzDH4QW/URgNYgZTkjA4UkwJUgGXng+6DX1zLfmoymdXo17xh5zmRJ6Q42BWCfc2oJfdAr+Yv+AP9Cb7OJ3H/2JG1HNGz/84klThPVCc=);strokeColor=#323232;strokeWidth=2;points=[[0.06,1,0],[0.13,1,0],[0.19,1,0],[0.25,1,0],[0.31,1,0],[0.37,1,0],[0.44,1,0],[0.5,1,0],[0.56,1,0],[0.63,1,0],[0.69,1,0],[0.75,1,0],[0.81,1,0],[0.88,1,0],[0.94,1,0],[0.06,0,0],[0.13,0,0],[0.19,0,0],[0.25,0,0],[0.31,0,0],[0.37,0,0],[0.44,0,0],[0.5,0,0],[0.56,0,0],[0.63,0,0],[0.69,0,0],[0.75,0,0],[0.81,0,0],[0.88,0,0],[0.94,0,0]];labelBackgroundColor=none;rounded=0;html=1;whiteSpace=wrap;" vertex="1" parent="qSWOto1qGnR7KdLFDjG3-13">
          <mxGeometry width="250" height="330" as="geometry" />
        </mxCell>
        <mxCell id="qSWOto1qGnR7KdLFDjG3-15" value="&lt;div style=&quot;font-size: 1px&quot;&gt;&lt;p style=&quot;text-align:center;margin-left:0;margin-right:0;margin-top:0px;margin-bottom:0px;text-indent:0;vertical-align:middle;direction:ltr;&quot;&gt;&lt;font style=&quot;font-size:16px;font-family:0;color:#323232;direction:ltr;letter-spacing:0px;line-height:120%;opacity:1&quot;&gt;AlarmCache&lt;/font&gt;&lt;/p&gt;&lt;/div&gt;" style="verticalAlign=middle;align=center;overflow=width;vsdxID=15;fillColor=#d6d6d6;gradientColor=none;shape=stencil(nZBLDoAgDERP0z3SIyjew0SURgSD+Lu9kMZoXLhwN9O+tukAlrNpJg1SzDH4QW/URgNYgZTkjA4UkwJUgGXng+6DX1zLfmoymdXo17xh5zmRJ6Q42BWCfc2oJfdAr+Yv+AP9Cb7OJ3H/2JG1HNGz/84klThPVCc=);strokeColor=#323232;strokeWidth=2;points=[[0.06,1,0],[0.13,1,0],[0.19,1,0],[0.25,1,0],[0.31,1,0],[0.37,1,0],[0.44,1,0],[0.5,1,0],[0.56,1,0],[0.63,1,0],[0.69,1,0],[0.75,1,0],[0.81,1,0],[0.88,1,0],[0.94,1,0],[0.06,0,0],[0.13,0,0],[0.19,0,0],[0.25,0,0],[0.31,0,0],[0.37,0,0],[0.44,0,0],[0.5,0,0],[0.56,0,0],[0.63,0,0],[0.69,0,0],[0.75,0,0],[0.81,0,0],[0.88,0,0],[0.94,0,0]];labelBackgroundColor=none;rounded=0;html=1;whiteSpace=wrap;" vertex="1" parent="qSWOto1qGnR7KdLFDjG3-13">
          <mxGeometry width="250" height="40" as="geometry" />
        </mxCell>
        <UserObject label="" tags="Background" id="qSWOto1qGnR7KdLFDjG3-16">
          <mxCell style="vsdxID=16;fillColor=#d6d6d6;gradientColor=none;fillOpacity=0;shape=stencil(nZBLDoAgDERP0z3SIyjew0SURgSD+Lu9kMZoXLhwN9N5bdMClrNpJg1SzDH4QW/URgNYgZTkjA4UkwJUgGXng+6DX1zLfmoymdXo1zxh5z6RO6Q42BWCfc2oJfdAr/AX/IH+BF/rk7hv7MjaZ/L+RirxJ1Gd);strokeColor=#323232;strokeWidth=2;points=[];labelBackgroundColor=none;rounded=0;html=1;whiteSpace=wrap;" vertex="1" parent="1">
            <mxGeometry x="1645" y="599" width="250" height="343" as="geometry" />
          </mxCell>
        </UserObject>
        <UserObject label="" tags="Background" id="qSWOto1qGnR7KdLFDjG3-17">
          <mxCell style="vsdxID=17;fillColor=#d6d6d6;gradientColor=none;fillOpacity=0;shape=stencil(nZBLDoAgDERP0z3SIyjew0SURgSD+Lu9kMZoXLhwN9N5bdMClrNpJg1SzDH4QW/URgNYgZTkjA4UkwJUgGXng+6DX1zLfmoymdXo1zxh5z6RO6Q42BWCfc2oJfdAr/AX/IH+BF/rk7hv7MjaZ/L+RirxJ1Gd);strokeColor=#323232;strokeWidth=2;points=[];labelBackgroundColor=none;rounded=0;html=1;whiteSpace=wrap;" vertex="1" parent="1">
            <mxGeometry x="1353" y="760" width="250" height="194" as="geometry" />
          </mxCell>
        </UserObject>
        <UserObject label="" tags="Background" id="qSWOto1qGnR7KdLFDjG3-19">
          <mxCell style="vsdxID=19;fillColor=#d6d6d6;gradientColor=none;fillOpacity=0;shape=stencil(nZBLDoAgDERP0z3SIyjew0SURgSD+Lu9kMZoXLhwN9N5bdMClrNpJg1SzDH4QW/URgNYgZTkjA4UkwJUgGXng+6DX1zLfmoymdXo1zxh5z6RO6Q42BWCfc2oJfdAr/AX/IH+BF/rk7hv7MjaZ/L+RirxJ1Gd);strokeColor=#323232;strokeWidth=2;points=[];labelBackgroundColor=none;rounded=0;html=1;whiteSpace=wrap;" vertex="1" parent="1">
            <mxGeometry x="1353" y="455" width="250" height="199" as="geometry" />
          </mxCell>
        </UserObject>
        <UserObject label="" tags="Background" id="qSWOto1qGnR7KdLFDjG3-20">
          <mxCell style="vsdxID=20;fillColor=#d6d6d6;gradientColor=none;fillOpacity=0;shape=stencil(nZBLDoAgDERP0z3SIyjew0SURgSD+Lu9kMZoXLhwN9N5bdMClrNpJg1SzDH4QW/URgNYgZTkjA4UkwJUgGXng+6DX1zLfmoymdXo1zxh5z6RO6Q42BWCfc2oJfdAr/AX/IH+BF/rk7hv7MjaZ/L+RirxJ1Gd);strokeColor=#323232;strokeWidth=2;points=[];labelBackgroundColor=none;rounded=0;html=1;whiteSpace=wrap;" vertex="1" parent="1">
            <mxGeometry x="257" y="623" width="250" height="290" as="geometry" />
          </mxCell>
        </UserObject>
        <UserObject label="" tags="背景" id="qSWOto1qGnR7KdLFDjG3-21">
          <mxCell style="vsdxID=21;fillColor=none;gradientColor=none;points=[];labelBackgroundColor=none;rounded=0;strokeColor=none;html=1;whiteSpace=wrap;" vertex="1" parent="1">
            <mxGeometry x="1645" y="256" width="250" height="343" as="geometry" />
          </mxCell>
        </UserObject>
        <mxCell id="qSWOto1qGnR7KdLFDjG3-22" style="vsdxID=22;fillColor=#d6d6d6;gradientColor=none;fillOpacity=0;shape=stencil(nZBLDoAgDERP0z3SIyjew0SURgSD+Lu9kMZoXLhwN9O+tukAlrNpJg1SzDH4QW/URgNYgZTkjA4UkwJUgGXng+6DX1zLfmoymdXo17xh5zmRJ6Q42BWCfc2oJfdAr+Yv+AP9Cb7OJ3H/2JG1HNGz/84klThPVCc=);strokeColor=#323232;strokeWidth=2;points=[];labelBackgroundColor=none;rounded=0;html=1;whiteSpace=wrap;" vertex="1" parent="qSWOto1qGnR7KdLFDjG3-21">
          <mxGeometry width="250" height="343" as="geometry" />
        </mxCell>
        <mxCell id="qSWOto1qGnR7KdLFDjG3-23" value="&lt;div style=&quot;font-size: 1px&quot;&gt;&lt;p style=&quot;text-align:center;margin-left:0;margin-right:0;margin-top:0px;margin-bottom:0px;text-indent:0;vertical-align:middle;direction:ltr;&quot;&gt;&lt;font style=&quot;font-size:13px;font-family:0;color:#323232;direction:ltr;letter-spacing:0px;line-height:120%;opacity:1&quot;&gt;getRemoteConfig&lt;/font&gt;&lt;/p&gt;&lt;/div&gt;" style="verticalAlign=middle;align=center;overflow=width;vsdxID=23;fillColor=#d6d6d6;gradientColor=none;shape=stencil(nZBLDoAgDERP0z3SIyjew0SURgSD+Lu9kMZoXLhwN9O+tukAlrNpJg1SzDH4QW/URgNYgZTkjA4UkwJUgGXng+6DX1zLfmoymdXo17xh5zmRJ6Q42BWCfc2oJfdAr+Yv+AP9Cb7OJ3H/2JG1HNGz/84klThPVCc=);strokeColor=#323232;strokeWidth=2;points=[];labelBackgroundColor=none;rounded=0;html=1;whiteSpace=wrap;" vertex="1" parent="qSWOto1qGnR7KdLFDjG3-21">
          <mxGeometry width="250" height="30" as="geometry" />
        </mxCell>
        <UserObject label="" tags="背景" id="qSWOto1qGnR7KdLFDjG3-24">
          <mxCell style="vsdxID=24;fillColor=none;gradientColor=none;points=[];labelBackgroundColor=none;rounded=0;strokeColor=none;html=1;whiteSpace=wrap;" vertex="1" parent="1">
            <mxGeometry x="1353" y="566" width="250" height="194" as="geometry" />
          </mxCell>
        </UserObject>
        <mxCell id="qSWOto1qGnR7KdLFDjG3-25" style="vsdxID=25;fillColor=#d6d6d6;gradientColor=none;fillOpacity=0;shape=stencil(nZBLDoAgDERP0z3SIyjew0SURgSD+Lu9kMZoXLhwN9O+tukAlrNpJg1SzDH4QW/URgNYgZTkjA4UkwJUgGXng+6DX1zLfmoymdXo17xh5zmRJ6Q42BWCfc2oJfdAr+Yv+AP9Cb7OJ3H/2JG1HNGz/84klThPVCc=);strokeColor=#323232;strokeWidth=2;points=[];labelBackgroundColor=none;rounded=0;html=1;whiteSpace=wrap;" vertex="1" parent="qSWOto1qGnR7KdLFDjG3-24">
          <mxGeometry width="250" height="194" as="geometry" />
        </mxCell>
        <mxCell id="qSWOto1qGnR7KdLFDjG3-26" value="&lt;div style=&quot;font-size: 1px&quot;&gt;&lt;p style=&quot;text-align:center;margin-left:0;margin-right:0;margin-top:0px;margin-bottom:0px;text-indent:0;vertical-align:middle;direction:ltr;&quot;&gt;&lt;font style=&quot;font-size:13px;font-family:0;color:#323232;direction:ltr;letter-spacing:0px;line-height:120%;opacity:1&quot;&gt;EventCache（）&lt;/font&gt;&lt;/p&gt;&lt;/div&gt;" style="verticalAlign=middle;align=center;overflow=width;vsdxID=26;fillColor=#d6d6d6;gradientColor=none;shape=stencil(nZBLDoAgDERP0z3SIyjew0SURgSD+Lu9kMZoXLhwN9O+tukAlrNpJg1SzDH4QW/URgNYgZTkjA4UkwJUgGXng+6DX1zLfmoymdXo17xh5zmRJ6Q42BWCfc2oJfdAr+Yv+AP9Cb7OJ3H/2JG1HNGz/84klThPVCc=);strokeColor=#323232;strokeWidth=2;points=[];labelBackgroundColor=none;rounded=0;html=1;whiteSpace=wrap;" vertex="1" parent="qSWOto1qGnR7KdLFDjG3-24">
          <mxGeometry width="250" height="30" as="geometry" />
        </mxCell>
        <UserObject label="" tags="背景" id="qSWOto1qGnR7KdLFDjG3-27">
          <mxCell style="vsdxID=27;fillColor=none;gradientColor=none;points=[];labelBackgroundColor=none;rounded=0;strokeColor=none;html=1;whiteSpace=wrap;" vertex="1" parent="1">
            <mxGeometry x="955" y="256" width="250" height="500" as="geometry" />
          </mxCell>
        </UserObject>
        <mxCell id="qSWOto1qGnR7KdLFDjG3-28" style="vsdxID=28;fillColor=#e74f4c;gradientColor=none;fillOpacity=0;shape=stencil(nZBLDoAgDERP0z3SIyjew0SURgSD+Lu9kMZoXLhwN9O+tukAlrNpJg1SzDH4QW/URgNYgZTkjA4UkwJUgGXng+6DX1zLfmoymdXo17xh5zmRJ6Q42BWCfc2oJfdAr+Yv+AP9Cb7OJ3H/2JG1HNGz/84klThPVCc=);strokeColor=#323232;strokeWidth=2;points=[];labelBackgroundColor=none;rounded=0;html=1;whiteSpace=wrap;" vertex="1" parent="qSWOto1qGnR7KdLFDjG3-27">
          <mxGeometry width="250" height="500" as="geometry" />
        </mxCell>
        <mxCell id="qSWOto1qGnR7KdLFDjG3-29" value="&lt;div style=&quot;font-size: 1px&quot;&gt;&lt;p style=&quot;text-align:center;margin-left:0;margin-right:0;margin-top:0px;margin-bottom:0px;text-indent:0;vertical-align:middle;direction:ltr;&quot;&gt;&lt;font style=&quot;font-size:13px;font-family:0;color:#000000;direction:ltr;letter-spacing:0px;line-height:120%;opacity:1&quot;&gt;&lt;b&gt;main&lt;/b&gt;&lt;/font&gt;&lt;/p&gt;&lt;/div&gt;" style="verticalAlign=middle;align=center;overflow=width;vsdxID=29;fillColor=#e74f4c;gradientColor=none;shape=stencil(nZBLDoAgDERP0z3SIyjew0SURgSD+Lu9kMZoXLhwN9O+tukAlrNpJg1SzDH4QW/URgNYgZTkjA4UkwJUgGXng+6DX1zLfmoymdXo17xh5zmRJ6Q42BWCfc2oJfdAr+Yv+AP9Cb7OJ3H/2JG1HNGz/84klThPVCc=);strokeColor=#323232;strokeWidth=2;points=[];labelBackgroundColor=none;rounded=0;html=1;whiteSpace=wrap;" vertex="1" parent="qSWOto1qGnR7KdLFDjG3-27">
          <mxGeometry width="250" height="30" as="geometry" />
        </mxCell>
        <UserObject label="" tags="背景" id="qSWOto1qGnR7KdLFDjG3-30">
          <mxCell style="vsdxID=30;fillColor=none;gradientColor=none;points=[];labelBackgroundColor=none;rounded=0;strokeColor=none;html=1;whiteSpace=wrap;" vertex="1" parent="1">
            <mxGeometry x="778" y="256" width="177" height="500" as="geometry" />
          </mxCell>
        </UserObject>
        <mxCell id="qSWOto1qGnR7KdLFDjG3-31" style="vsdxID=31;fillColor=#d6d6d6;gradientColor=none;fillOpacity=0;shape=stencil(nZBLDoAgDERP0z3SIyjew0SURgSD+Lu9kMZoXLhwN9O+tukAlrNpJg1SzDH4QW/URgNYgZTkjA4UkwJUgGXng+6DX1zLfmoymdXo17xh5zmRJ6Q42BWCfc2oJfdAr+Yv+AP9Cb7OJ3H/2JG1HNGz/84klThPVCc=);strokeColor=#323232;strokeWidth=2;points=[];labelBackgroundColor=none;rounded=0;html=1;whiteSpace=wrap;" vertex="1" parent="qSWOto1qGnR7KdLFDjG3-30">
          <mxGeometry width="177" height="500" as="geometry" />
        </mxCell>
        <mxCell id="qSWOto1qGnR7KdLFDjG3-32" value="&lt;div style=&quot;font-size: 1px&quot;&gt;&lt;p style=&quot;text-align:center;margin-left:0;margin-right:0;margin-top:0px;margin-bottom:0px;text-indent:0;vertical-align:middle;direction:ltr;&quot;&gt;&lt;font style=&quot;font-size:13px;font-family:0;color:#323232;direction:ltr;letter-spacing:0px;line-height:120%;opacity:1&quot;&gt;submitJob&lt;/font&gt;&lt;/p&gt;&lt;/div&gt;" style="verticalAlign=middle;align=center;overflow=width;vsdxID=32;fillColor=#d6d6d6;gradientColor=none;shape=stencil(nZBLDoAgDERP0z3SIyjew0SURgSD+Lu9kMZoXLhwN9O+tukAlrNpJg1SzDH4QW/URgNYgZTkjA4UkwJUgGXng+6DX1zLfmoymdXo17xh5zmRJ6Q42BWCfc2oJfdAr+Yv+AP9Cb7OJ3H/2JG1HNGz/84klThPVCc=);strokeColor=#323232;strokeWidth=2;points=[];labelBackgroundColor=none;rounded=0;html=1;whiteSpace=wrap;" vertex="1" parent="qSWOto1qGnR7KdLFDjG3-30">
          <mxGeometry width="177" height="30" as="geometry" />
        </mxCell>
        <UserObject label="" tags="背景" id="qSWOto1qGnR7KdLFDjG3-33">
          <mxCell style="vsdxID=33;fillColor=none;gradientColor=none;points=[];labelBackgroundColor=none;rounded=0;strokeColor=none;html=1;whiteSpace=wrap;" vertex="1" parent="1">
            <mxGeometry x="1353" y="256" width="250" height="199" as="geometry" />
          </mxCell>
        </UserObject>
        <mxCell id="qSWOto1qGnR7KdLFDjG3-34" style="vsdxID=34;fillColor=#d6d6d6;gradientColor=none;fillOpacity=0;shape=stencil(nZBLDoAgDERP0z3SIyjew0SURgSD+Lu9kMZoXLhwN9O+tukAlrNpJg1SzDH4QW/URgNYgZTkjA4UkwJUgGXng+6DX1zLfmoymdXo17xh5zmRJ6Q42BWCfc2oJfdAr+Yv+AP9Cb7OJ3H/2JG1HNGz/84klThPVCc=);strokeColor=#323232;strokeWidth=2;points=[];labelBackgroundColor=none;rounded=0;html=1;whiteSpace=wrap;" vertex="1" parent="qSWOto1qGnR7KdLFDjG3-33">
          <mxGeometry width="250" height="199" as="geometry" />
        </mxCell>
        <mxCell id="qSWOto1qGnR7KdLFDjG3-35" value="&lt;div style=&quot;font-size: 1px&quot;&gt;&lt;p style=&quot;text-align:center;margin-left:0;margin-right:0;margin-top:0px;margin-bottom:0px;text-indent:0;vertical-align:middle;direction:ltr;&quot;&gt;&lt;font style=&quot;font-size:13px;font-family:0;color:#323232;direction:ltr;letter-spacing:0px;line-height:120%;opacity:1&quot;&gt;init&lt;/font&gt;&lt;/p&gt;&lt;/div&gt;" style="verticalAlign=middle;align=center;overflow=width;vsdxID=35;fillColor=#d6d6d6;gradientColor=none;shape=stencil(nZBLDoAgDERP0z3SIyjew0SURgSD+Lu9kMZoXLhwN9O+tukAlrNpJg1SzDH4QW/URgNYgZTkjA4UkwJUgGXng+6DX1zLfmoymdXo17xh5zmRJ6Q42BWCfc2oJfdAr+Yv+AP9Cb7OJ3H/2JG1HNGz/84klThPVCc=);strokeColor=#323232;strokeWidth=2;points=[];labelBackgroundColor=none;rounded=0;html=1;whiteSpace=wrap;" vertex="1" parent="qSWOto1qGnR7KdLFDjG3-33">
          <mxGeometry width="250" height="30" as="geometry" />
        </mxCell>
        <UserObject label="" tags="背景" id="qSWOto1qGnR7KdLFDjG3-36">
          <mxCell style="vsdxID=36;fillColor=none;gradientColor=none;points=[];labelBackgroundColor=none;rounded=0;strokeColor=none;html=1;whiteSpace=wrap;" vertex="1" parent="1">
            <mxGeometry x="257" y="333" width="250" height="290" as="geometry" />
          </mxCell>
        </UserObject>
        <mxCell id="qSWOto1qGnR7KdLFDjG3-37" style="vsdxID=37;fillColor=#d6d6d6;gradientColor=none;fillOpacity=0;shape=stencil(nZBLDoAgDERP0z3SIyjew0SURgSD+Lu9kMZoXLhwN9O+tukAlrNpJg1SzDH4QW/URgNYgZTkjA4UkwJUgGXng+6DX1zLfmoymdXo17xh5zmRJ6Q42BWCfc2oJfdAr+Yv+AP9Cb7OJ3H/2JG1HNGz/84klThPVCc=);strokeColor=#323232;strokeWidth=2;points=[];labelBackgroundColor=none;rounded=0;html=1;whiteSpace=wrap;" vertex="1" parent="qSWOto1qGnR7KdLFDjG3-36">
          <mxGeometry width="250" height="290" as="geometry" />
        </mxCell>
        <mxCell id="qSWOto1qGnR7KdLFDjG3-38" value="&lt;div style=&quot;font-size: 1px&quot;&gt;&lt;p style=&quot;text-align:center;margin-left:0;margin-right:0;margin-top:0px;margin-bottom:0px;text-indent:0;vertical-align:middle;direction:ltr;&quot;&gt;&lt;font style=&quot;font-size:13px;font-family:0;color:#323232;direction:ltr;letter-spacing:0px;line-height:120%;opacity:1&quot;&gt;putAlarmIntoRedis&lt;/font&gt;&lt;/p&gt;&lt;/div&gt;" style="verticalAlign=middle;align=center;overflow=width;vsdxID=38;fillColor=#d6d6d6;gradientColor=none;shape=stencil(nZBLDoAgDERP0z3SIyjew0SURgSD+Lu9kMZoXLhwN9O+tukAlrNpJg1SzDH4QW/URgNYgZTkjA4UkwJUgGXng+6DX1zLfmoymdXo17xh5zmRJ6Q42BWCfc2oJfdAr+Yv+AP9Cb7OJ3H/2JG1HNGz/84klThPVCc=);strokeColor=#323232;strokeWidth=2;points=[];labelBackgroundColor=none;rounded=0;html=1;whiteSpace=wrap;" vertex="1" parent="qSWOto1qGnR7KdLFDjG3-36">
          <mxGeometry width="250" height="30" as="geometry" />
        </mxCell>
        <UserObject label="" tags="背景" id="qSWOto1qGnR7KdLFDjG3-39">
          <mxCell style="vsdxID=39;fillColor=none;gradientColor=none;points=[];labelBackgroundColor=none;rounded=0;strokeColor=none;html=1;whiteSpace=wrap;" vertex="1" parent="1">
            <mxGeometry x="601" y="256" width="177" height="500" as="geometry" />
          </mxCell>
        </UserObject>
        <mxCell id="qSWOto1qGnR7KdLFDjG3-40" style="vsdxID=40;fillColor=#d6d6d6;gradientColor=none;fillOpacity=0;shape=stencil(nZBLDoAgDERP0z3SIyjew0SURgSD+Lu9kMZoXLhwN9O+tukAlrNpJg1SzDH4QW/URgNYgZTkjA4UkwJUgGXng+6DX1zLfmoymdXo17xh5zmRJ6Q42BWCfc2oJfdAr+Yv+AP9Cb7OJ3H/2JG1HNGz/84klThPVCc=);strokeColor=#323232;strokeWidth=2;points=[];labelBackgroundColor=none;rounded=0;html=1;whiteSpace=wrap;" vertex="1" parent="qSWOto1qGnR7KdLFDjG3-39">
          <mxGeometry width="177" height="500" as="geometry" />
        </mxCell>
        <mxCell id="qSWOto1qGnR7KdLFDjG3-41" value="&lt;div style=&quot;font-size: 1px&quot;&gt;&lt;p style=&quot;text-align:center;margin-left:0;margin-right:0;margin-top:0px;margin-bottom:0px;text-indent:0;vertical-align:middle;direction:ltr;&quot;&gt;&lt;font style=&quot;font-size:13px;font-family:0;color:#323232;direction:ltr;letter-spacing:0px;line-height:120%;opacity:1&quot;&gt;loadCache&lt;/font&gt;&lt;/p&gt;&lt;/div&gt;" style="verticalAlign=middle;align=center;overflow=width;vsdxID=41;fillColor=#d6d6d6;gradientColor=none;shape=stencil(nZBLDoAgDERP0z3SIyjew0SURgSD+Lu9kMZoXLhwN9O+tukAlrNpJg1SzDH4QW/URgNYgZTkjA4UkwJUgGXng+6DX1zLfmoymdXo17xh5zmRJ6Q42BWCfc2oJfdAr+Yv+AP9Cb7OJ3H/2JG1HNGz/84klThPVCc=);strokeColor=#323232;strokeWidth=2;points=[];labelBackgroundColor=none;rounded=0;html=1;whiteSpace=wrap;" vertex="1" parent="qSWOto1qGnR7KdLFDjG3-39">
          <mxGeometry width="177" height="30" as="geometry" />
        </mxCell>
        <UserObject label="&lt;div style=&quot;font-size: 1px&quot;&gt;&lt;p style=&quot;text-align:center;margin-left:0;margin-right:0;margin-top:0px;margin-bottom:0px;text-indent:0;vertical-align:middle;direction:ltr;&quot;&gt;&lt;font style=&quot;font-size:13px;font-family:0;color:#323232;direction:ltr;letter-spacing:0px;line-height:120%;opacity:1&quot;&gt;加载参数：&lt;br/&gt;&lt;/font&gt;&lt;font style=&quot;font-size:13px;font-family:0;color:#323232;direction:ltr;letter-spacing:0px;line-height:120%;opacity:1&quot;&gt;1、入口参数：topofile&lt;br/&gt;&lt;/font&gt;&lt;font style=&quot;font-size:13px;font-family:0;color:#323232;direction:ltr;letter-spacing:0px;line-height:120%;opacity:1&quot;&gt;2、环境变量参数：租户、项目名&lt;/font&gt;&lt;/p&gt;&lt;/div&gt;" tags="Background" id="qSWOto1qGnR7KdLFDjG3-42">
          <mxCell style="verticalAlign=middle;align=center;overflow=width;vsdxID=42;fillColor=#d6d6d6;gradientColor=none;shape=stencil(nZBRDoQgDERP03+WHsHFe5iISyOCQdT19kIaIxq//Jtp3zTpAFaTaUYNUkwx+F6v1EYD+AUpyRkdKCYFqACrzgf9C352LfuxyWRWg1/yhT/nRE5IsZWuZtCSK8CPeI0e/hF+jV7AJM4PO7KWCyr390bSiNtEtQM=);strokeColor=#323232;strokeWidth=2;spacingTop=-3;spacingBottom=-3;spacingLeft=-3;spacingRight=-3;points=[];labelBackgroundColor=none;rounded=0;html=1;whiteSpace=wrap;" vertex="1" parent="1">
            <mxGeometry x="971" y="302" width="213" height="54" as="geometry" />
          </mxCell>
        </UserObject>
        <UserObject label="&lt;div style=&quot;font-size: 1px&quot;&gt;&lt;p style=&quot;text-align:center;margin-left:0;margin-right:0;margin-top:0px;margin-bottom:0px;text-indent:0;vertical-align:middle;direction:ltr;&quot;&gt;&lt;font style=&quot;font-size:13px;font-family:0;color:#323232;direction:ltr;letter-spacing:0px;line-height:120%;opacity:1&quot;&gt;加载服务地址：initServiceAddress(args)&lt;/font&gt;&lt;/p&gt;&lt;/div&gt;" tags="Background" id="qSWOto1qGnR7KdLFDjG3-43">
          <mxCell style="verticalAlign=middle;align=center;overflow=width;vsdxID=43;fillColor=#d6d6d6;gradientColor=none;shape=stencil(nZBRDoQgDERP03+WHsHFe5iISyOCQdT19kIaIxq//Jtp3zTpAFaTaUYNUkwx+F6v1EYD+AUpyRkdKCYFqACrzgf9C352LfuxyWRWg1/yhT/nRE5IsZWuZtCSK8CPeI0e/hF+jV7AJM4PO7KWCyr390bSiNtEtQM=);strokeColor=#323232;strokeWidth=2;spacingTop=-3;spacingBottom=-3;spacingLeft=-3;spacingRight=-3;points=[];labelBackgroundColor=none;rounded=0;html=1;whiteSpace=wrap;" vertex="1" parent="1">
            <mxGeometry x="971" y="397" width="213" height="54" as="geometry" />
          </mxCell>
        </UserObject>
        <UserObject label="&lt;div style=&quot;font-size: 1px&quot;&gt;&lt;p style=&quot;text-align:center;margin-left:0;margin-right:0;margin-top:0px;margin-bottom:0px;text-indent:0;vertical-align:middle;direction:ltr;&quot;&gt;&lt;font style=&quot;font-size:13px;font-family:0;color:#323232;direction:ltr;letter-spacing:0px;line-height:120%;opacity:1&quot;&gt;获取远程配置信息：ConfigCenter.getRemoteConfig()&lt;/font&gt;&lt;/p&gt;&lt;/div&gt;" tags="Background" id="qSWOto1qGnR7KdLFDjG3-44">
          <mxCell style="verticalAlign=middle;align=center;overflow=width;vsdxID=44;fillColor=#d6d6d6;gradientColor=none;shape=stencil(nZBRDoQgDERP03+WHsHFe5iISyOCQdT19kIaIxq//Jtp3zTpAFaTaUYNUkwx+F6v1EYD+AUpyRkdKCYFqACrzgf9C352LfuxyWRWg1/yhT/nRE5IsZWuZtCSK8CPeI0e/hF+jV7AJM4PO7KWCyr390bSiNtEtQM=);strokeColor=#323232;strokeWidth=2;spacingTop=-3;spacingBottom=-3;spacingLeft=-3;spacingRight=-3;points=[];labelBackgroundColor=none;rounded=0;html=1;whiteSpace=wrap;" vertex="1" parent="1">
            <mxGeometry x="1362" y="293" width="229" height="54" as="geometry" />
          </mxCell>
        </UserObject>
        <UserObject label="&lt;div style=&quot;font-size: 1px&quot;&gt;&lt;p style=&quot;text-align:center;margin-left:0;margin-right:0;margin-top:0px;margin-bottom:0px;text-indent:0;vertical-align:middle;direction:ltr;&quot;&gt;&lt;font style=&quot;font-size:13px;font-family:0;color:#323232;direction:ltr;letter-spacing:0px;line-height:120%;opacity:1&quot;&gt;加载时序和报警事件&lt;br/&gt;&lt;/font&gt;&lt;font style=&quot;font-size:13px;font-family:0;color:#323232;direction:ltr;letter-spacing:0px;line-height:120%;opacity:1&quot;&gt;JedisClusterUtil.init();&lt;br/&gt;&lt;/font&gt;&lt;/p&gt;&lt;/div&gt;" tags="Background" id="qSWOto1qGnR7KdLFDjG3-45">
          <mxCell style="verticalAlign=middle;align=center;overflow=width;vsdxID=45;fillColor=#d6d6d6;gradientColor=none;shape=stencil(nZBRDoQgDERP03+WHsHFe5iISyOCQdT19kIaIxq//Jtp3zTpAFaTaUYNUkwx+F6v1EYD+AUpyRkdKCYFqACrzgf9C352LfuxyWRWg1/yhT/nRE5IsZWuZtCSK8CPeI0e/hF+jV7AJM4PO7KWCyr390bSiNtEtQM=);strokeColor=#323232;strokeWidth=2;spacingTop=-3;spacingBottom=-3;spacingLeft=-3;spacingRight=-3;points=[];labelBackgroundColor=none;rounded=0;html=1;whiteSpace=wrap;" vertex="1" parent="1">
            <mxGeometry x="971" y="496" width="213" height="54" as="geometry" />
          </mxCell>
        </UserObject>
        <UserObject label="&lt;div style=&quot;font-size: 1px&quot;&gt;&lt;p style=&quot;text-align:center;margin-left:0;margin-right:0;margin-top:0px;margin-bottom:0px;text-indent:0;vertical-align:middle;direction:ltr;&quot;&gt;&lt;font style=&quot;font-size:13px;font-family:0;color:#323232;direction:ltr;letter-spacing:0px;line-height:120%;opacity:1&quot;&gt;加载时序和报警事件类型(元数据)&lt;br/&gt;&lt;/font&gt;&lt;font style=&quot;font-size:13px;font-family:0;color:#323232;direction:ltr;letter-spacing:0px;line-height:120%;opacity:1&quot;&gt;loadEvents();&lt;br/&gt;&lt;/font&gt;&lt;/p&gt;&lt;/div&gt;" tags="Background" id="qSWOto1qGnR7KdLFDjG3-46">
          <mxCell style="verticalAlign=middle;align=center;overflow=width;vsdxID=46;fillColor=#d6d6d6;gradientColor=none;shape=stencil(nZBRDoQgDERP03+WHsHFe5iISyOCQdT19kIaIxq//Jtp3zTpAFaTaUYNUkwx+F6v1EYD+AUpyRkdKCYFqACrzgf9C352LfuxyWRWg1/yhT/nRE5IsZWuZtCSK8CPeI0e/hF+jV7AJM4PO7KWCyr390bSiNtEtQM=);strokeColor=#323232;strokeWidth=2;spacingTop=-3;spacingBottom=-3;spacingLeft=-3;spacingRight=-3;points=[];labelBackgroundColor=none;rounded=0;html=1;whiteSpace=wrap;" vertex="1" parent="1">
            <mxGeometry x="971" y="595" width="213" height="54" as="geometry" />
          </mxCell>
        </UserObject>
        <UserObject label="&lt;div style=&quot;font-size: 1px&quot;&gt;&lt;p style=&quot;text-align:center;margin-left:0;margin-right:0;margin-top:0px;margin-bottom:0px;text-indent:0;vertical-align:middle;direction:ltr;&quot;&gt;&lt;font style=&quot;font-size:13px;font-family:0;color:#323232;direction:ltr;letter-spacing:0px;line-height:120%;opacity:1&quot;&gt;提交topo到flink作业&lt;br/&gt;&lt;br/&gt;&lt;/font&gt;&lt;font style=&quot;font-size:13px;font-family:0;color:#323232;direction:ltr;letter-spacing:0px;line-height:120%;opacity:1&quot;&gt;submitJob(parallelism, topoFileOrId);&lt;br/&gt;&lt;/font&gt;&lt;/p&gt;&lt;/div&gt;" tags="Background" id="qSWOto1qGnR7KdLFDjG3-47">
          <mxCell style="verticalAlign=middle;align=center;overflow=width;vsdxID=47;fillColor=#d6d6d6;gradientColor=none;shape=stencil(nZBRDoQgDERP03+WHsHFe5iISyOCQdT19kIaIxq//Jtp3zTpAFaTaUYNUkwx+F6v1EYD+AUpyRkdKCYFqACrzgf9C352LfuxyWRWg1/yhT/nRE5IsZWuZtCSK8CPeI0e/hF+jV7AJM4PO7KWCyr390bSiNtEtQM=);strokeColor=#323232;strokeWidth=2;spacingTop=-3;spacingBottom=-3;spacingLeft=-3;spacingRight=-3;points=[];labelBackgroundColor=none;rounded=0;html=1;whiteSpace=wrap;" vertex="1" parent="1">
            <mxGeometry x="971" y="690" width="213" height="54" as="geometry" />
          </mxCell>
        </UserObject>
        <UserObject label="&lt;div style=&quot;font-size: 1px&quot;&gt;&lt;p style=&quot;text-align:center;margin-left:0;margin-right:0;margin-top:0px;margin-bottom:0px;text-indent:0;vertical-align:middle;direction:ltr;&quot;&gt;&lt;font style=&quot;font-size:13px;font-family:0;color:#323232;direction:ltr;letter-spacing:0px;line-height:120%;opacity:1&quot;&gt;配置信息：&lt;/font&gt;&lt;font style=&quot;font-size:13px;font-family:0;color:#323232;direction:ltr;letter-spacing:0px;line-height:120%;opacity:1&quot;&gt;mysql&lt;br/&gt;&lt;/font&gt;&lt;font style=&quot;font-size:13px;font-family:0;color:#323232;direction:ltr;letter-spacing:0px;line-height:120%;opacity:1&quot;&gt;kafka&lt;br/&gt;&lt;/font&gt;&lt;font style=&quot;font-size:13px;font-family:0;color:#323232;direction:ltr;letter-spacing:0px;line-height:120%;opacity:1&quot;&gt;...&lt;/font&gt;&lt;/p&gt;&lt;/div&gt;" tags="Background" id="qSWOto1qGnR7KdLFDjG3-48">
          <mxCell style="verticalAlign=middle;align=center;overflow=width;vsdxID=48;fillColor=#d6d6d6;gradientColor=none;shape=stencil(nZBRDoQgDERP03+WHsHFe5iISyOCQdT19kIaIxq//Jtp3zTpAFaTaUYNUkwx+F6v1EYD+AUpyRkdKCYFqACrzgf9C352LfuxyWRWg1/yhT/nRE5IsZWuZtCSK8CPeI0e/hF+jV7AJM4PO7KWCyr390bSiNtEtQM=);strokeColor=#323232;strokeWidth=2;spacingTop=-3;spacingBottom=-3;spacingLeft=-3;spacingRight=-3;points=[];labelBackgroundColor=none;rounded=0;html=1;whiteSpace=wrap;" vertex="1" parent="1">
            <mxGeometry x="1362" y="369" width="229" height="76" as="geometry" />
          </mxCell>
        </UserObject>
        <UserObject label="&lt;div style=&quot;font-size: 1px&quot;&gt;&lt;p style=&quot;text-align:center;margin-left:0;margin-right:0;margin-top:0px;margin-bottom:0px;text-indent:0;vertical-align:middle;direction:ltr;&quot;&gt;&lt;font style=&quot;font-size:13px;font-family:0;color:#323232;direction:ltr;letter-spacing:0px;line-height:120%;opacity:1&quot;&gt;先获取环境变量，Const.CONFIGMODE，用来指定加载的配置&lt;/font&gt;&lt;/p&gt;&lt;/div&gt;" tags="Background" id="qSWOto1qGnR7KdLFDjG3-49">
          <mxCell style="verticalAlign=middle;align=center;overflow=width;vsdxID=49;fillColor=#d6d6d6;gradientColor=none;shape=stencil(nZBRDoQgDERP03+WHsHFe5iISyOCQdT19kIaIxq//Jtp3zTpAFaTaUYNUkwx+F6v1EYD+AUpyRkdKCYFqACrzgf9C352LfuxyWRWg1/yhT/nRE5IsZWuZtCSK8CPeI0e/hF+jV7AJM4PO7KWCyr390bSiNtEtQM=);strokeColor=#323232;strokeWidth=2;spacingTop=-3;spacingBottom=-3;spacingLeft=-3;spacingRight=-3;points=[];labelBackgroundColor=none;rounded=0;html=1;whiteSpace=wrap;" vertex="1" parent="1">
            <mxGeometry x="1653" y="306" width="229" height="54" as="geometry" />
          </mxCell>
        </UserObject>
        <UserObject label="&lt;div style=&quot;font-size: 1px&quot;&gt;&lt;p style=&quot;text-align:center;margin-left:0;margin-right:0;margin-top:0px;margin-bottom:0px;text-indent:0;vertical-align:middle;direction:ltr;&quot;&gt;&lt;font style=&quot;font-size:13px;font-family:0;color:#323232;direction:ltr;letter-spacing:0px;line-height:120%;opacity:1&quot;&gt;加载不到，默认加载Nacos&lt;/font&gt;&lt;/p&gt;&lt;/div&gt;" tags="Background" id="qSWOto1qGnR7KdLFDjG3-50">
          <mxCell style="verticalAlign=middle;align=center;overflow=width;vsdxID=50;fillColor=#d6d6d6;gradientColor=none;shape=stencil(nZBRDoQgDERP03+WHsHFe5iISyOCQdT19kIaIxq//Jtp3zTpAFaTaUYNUkwx+F6v1EYD+AUpyRkdKCYFqACrzgf9C352LfuxyWRWg1/yhT/nRE5IsZWuZtCSK8CPeI0e/hF+jV7AJM4PO7KWCyr390bSiNtEtQM=);strokeColor=#323232;strokeWidth=2;spacingTop=-3;spacingBottom=-3;spacingLeft=-3;spacingRight=-3;points=[];labelBackgroundColor=none;rounded=0;html=1;whiteSpace=wrap;" vertex="1" parent="1">
            <mxGeometry x="1653" y="381" width="229" height="54" as="geometry" />
          </mxCell>
        </UserObject>
        <UserObject label="&lt;div style=&quot;font-size: 1px&quot;&gt;&lt;p style=&quot;text-align:center;margin-left:0;margin-right:0;margin-top:0px;margin-bottom:0px;text-indent:0;vertical-align:middle;direction:ltr;&quot;&gt;&lt;font style=&quot;font-size:13px;font-family:0;color:#323232;direction:ltr;letter-spacing:0px;line-height:120%;opacity:1&quot;&gt;顺序判断加载配置：&lt;br/&gt;&lt;/font&gt;&lt;font style=&quot;font-size:13px;font-family:0;color:#323232;direction:ltr;letter-spacing:0px;line-height:120%;opacity:1&quot;&gt;nacos |config center|configmap|local&lt;/font&gt;&lt;/p&gt;&lt;/div&gt;" tags="Background" id="qSWOto1qGnR7KdLFDjG3-51">
          <mxCell style="verticalAlign=middle;align=center;overflow=width;vsdxID=51;fillColor=#d6d6d6;gradientColor=none;shape=stencil(nZBRDoQgDERP03+WHsHFe5iISyOCQdT19kIaIxq//Jtp3zTpAFaTaUYNUkwx+F6v1EYD+AUpyRkdKCYFqACrzgf9C352LfuxyWRWg1/yhT/nRE5IsZWuZtCSK8CPeI0e/hF+jV7AJM4PO7KWCyr390bSiNtEtQM=);strokeColor=#323232;strokeWidth=2;spacingTop=-3;spacingBottom=-3;spacingLeft=-3;spacingRight=-3;points=[];labelBackgroundColor=none;rounded=0;html=1;whiteSpace=wrap;" vertex="1" parent="1">
            <mxGeometry x="1646" y="461" width="242" height="54" as="geometry" />
          </mxCell>
        </UserObject>
        <UserObject label="&lt;div style=&quot;font-size: 1px&quot;&gt;&lt;p style=&quot;text-align:center;margin-left:0;margin-right:0;margin-top:0px;margin-bottom:0px;text-indent:0;vertical-align:middle;direction:ltr;&quot;&gt;&lt;font style=&quot;font-size:13px;font-family:0;color:#323232;direction:ltr;letter-spacing:0px;line-height:120%;opacity:1&quot;&gt;容错：加载重试3次&lt;/font&gt;&lt;/p&gt;&lt;/div&gt;" tags="Background" id="qSWOto1qGnR7KdLFDjG3-52">
          <mxCell style="verticalAlign=middle;align=center;overflow=width;vsdxID=52;fillColor=#d6d6d6;gradientColor=none;shape=stencil(nZBRDoQgDERP03+WHsHFe5iISyOCQdT19kIaIxq//Jtp3zTpAFaTaUYNUkwx+F6v1EYD+AUpyRkdKCYFqACrzgf9C352LfuxyWRWg1/yhT/nRE5IsZWuZtCSK8CPeI0e/hF+jV7AJM4PO7KWCyr390bSiNtEtQM=);strokeColor=#323232;strokeWidth=2;spacingTop=-3;spacingBottom=-3;spacingLeft=-3;spacingRight=-3;points=[];labelBackgroundColor=none;rounded=0;html=1;whiteSpace=wrap;" vertex="1" parent="1">
            <mxGeometry x="1649" y="537" width="235" height="54" as="geometry" />
          </mxCell>
        </UserObject>
        <UserObject label="&lt;div style=&quot;font-size: 1px&quot;&gt;&lt;p style=&quot;text-align:center;margin-left:0;margin-right:0;margin-top:0px;margin-bottom:0px;text-indent:0;vertical-align:middle;direction:ltr;&quot;&gt;&lt;font style=&quot;font-size:13px;font-family:0;color:#323232;direction:ltr;letter-spacing:0px;line-height:120%;opacity:1&quot;&gt;获取redis service&lt;br/&gt;&lt;/font&gt;&lt;font style=&quot;font-size:13px;font-family:0;color:#323232;direction:ltr;letter-spacing:0px;line-height:120%;opacity:1&quot;&gt;getRedisService()&lt;/font&gt;&lt;/p&gt;&lt;/div&gt;" tags="Background" id="qSWOto1qGnR7KdLFDjG3-53">
          <mxCell style="verticalAlign=middle;align=center;overflow=width;vsdxID=53;fillColor=#d6d6d6;gradientColor=none;shape=stencil(nZBRDoQgDERP03+WHsHFe5iISyOCQdT19kIaIxq//Jtp3zTpAFaTaUYNUkwx+F6v1EYD+AUpyRkdKCYFqACrzgf9C352LfuxyWRWg1/yhT/nRE5IsZWuZtCSK8CPeI0e/hF+jV7AJM4PO7KWCyr390bSiNtEtQM=);strokeColor=#323232;strokeWidth=2;spacingTop=-3;spacingBottom=-3;spacingLeft=-3;spacingRight=-3;points=[];labelBackgroundColor=none;rounded=0;html=1;whiteSpace=wrap;" vertex="1" parent="1">
            <mxGeometry x="1362" y="610" width="229" height="54" as="geometry" />
          </mxCell>
        </UserObject>
        <UserObject label="&lt;div style=&quot;font-size: 1px&quot;&gt;&lt;p style=&quot;text-align:center;margin-left:0;margin-right:0;margin-top:0px;margin-bottom:0px;text-indent:0;vertical-align:middle;direction:ltr;&quot;&gt;&lt;font style=&quot;font-size:13px;font-family:0;color:#323232;direction:ltr;letter-spacing:0px;line-height:120%;opacity:1&quot;&gt;加载平台事件类型至redis&lt;br/&gt;&lt;br/&gt;&lt;/font&gt;&lt;font style=&quot;font-size:13px;font-family:0;color:#323232;direction:ltr;letter-spacing:0px;line-height:120%;opacity:1&quot;&gt;loadCommonEventIntoRedis()&lt;br/&gt;&lt;/font&gt;&lt;/p&gt;&lt;/div&gt;" tags="Background" id="qSWOto1qGnR7KdLFDjG3-54">
          <mxCell style="verticalAlign=middle;align=center;overflow=width;vsdxID=54;fillColor=#d6d6d6;gradientColor=none;shape=stencil(nZBRDoQgDERP03+WHsHFe5iISyOCQdT19kIaIxq//Jtp3zTpAFaTaUYNUkwx+F6v1EYD+AUpyRkdKCYFqACrzgf9C352LfuxyWRWg1/yhT/nRE5IsZWuZtCSK8CPeI0e/hF+jV7AJM4PO7KWCyr390bSiNtEtQM=);strokeColor=#323232;strokeWidth=2;spacingTop=-3;spacingBottom=-3;spacingLeft=-3;spacingRight=-3;points=[];labelBackgroundColor=none;rounded=0;html=1;whiteSpace=wrap;" vertex="1" parent="1">
            <mxGeometry x="1362" y="694" width="229" height="54" as="geometry" />
          </mxCell>
        </UserObject>
        <UserObject label="&lt;div style=&quot;font-size: 1px&quot;&gt;&lt;p style=&quot;text-align:center;margin-left:0;margin-right:0;margin-top:0px;margin-bottom:0px;text-indent:0;vertical-align:middle;direction:ltr;&quot;&gt;&lt;font style=&quot;font-size:13px;font-family:0;color:#323232;direction:ltr;letter-spacing:0px;line-height:120%;opacity:1&quot;&gt;初始化Topo&lt;br/&gt;&lt;/font&gt;&lt;font style=&quot;font-size:13px;font-family:0;color:#323232;direction:ltr;letter-spacing:0px;line-height:120%;opacity:1&quot;&gt;（代码没具体看）&lt;/font&gt;&lt;/p&gt;&lt;/div&gt;" tags="Background" id="qSWOto1qGnR7KdLFDjG3-55">
          <mxCell style="verticalAlign=middle;align=center;overflow=width;vsdxID=55;fillColor=#d6d6d6;gradientColor=none;shape=stencil(nZBRDoQgDERP03+WHsHFe5iISyOCQdT19kIaIxq//Jtp3zTpAFaTaUYNUkwx+F6v1EYD+AUpyRkdKCYFqACrzgf9C352LfuxyWRWg1/yhT/nRE5IsZWuZtCSK8CPeI0e/hF+jV7AJM4PO7KWCyr390bSiNtEtQM=);strokeColor=#323232;strokeWidth=2;spacingTop=-3;spacingBottom=-3;spacingLeft=-3;spacingRight=-3;points=[];labelBackgroundColor=none;rounded=0;html=1;whiteSpace=wrap;" vertex="1" parent="1">
            <mxGeometry x="794" y="309" width="134" height="54" as="geometry" />
          </mxCell>
        </UserObject>
        <UserObject label="&lt;div style=&quot;font-size: 1px&quot;&gt;&lt;p style=&quot;text-align:center;margin-left:0;margin-right:0;margin-top:0px;margin-bottom:0px;text-indent:0;vertical-align:middle;direction:ltr;&quot;&gt;&lt;font style=&quot;font-size:13px;font-family:0;color:#323232;direction:ltr;letter-spacing:0px;line-height:120%;opacity:1&quot;&gt;loadCache()&lt;/font&gt;&lt;/p&gt;&lt;/div&gt;" tags="Background" id="qSWOto1qGnR7KdLFDjG3-56">
          <mxCell style="verticalAlign=middle;align=center;overflow=width;vsdxID=56;fillColor=#d6d6d6;gradientColor=none;shape=stencil(nZBRDoQgDERP03+WHsHFe5iISyOCQdT19kIaIxq//Jtp3zTpAFaTaUYNUkwx+F6v1EYD+AUpyRkdKCYFqACrzgf9C352LfuxyWRWg1/yhT/nRE5IsZWuZtCSK8CPeI0e/hF+jV7AJM4PO7KWCyr390bSiNtEtQM=);strokeColor=#323232;strokeWidth=2;spacingTop=-3;spacingBottom=-3;spacingLeft=-3;spacingRight=-3;points=[];labelBackgroundColor=none;rounded=0;html=1;whiteSpace=wrap;" vertex="1" parent="1">
            <mxGeometry x="794" y="496" width="134" height="54" as="geometry" />
          </mxCell>
        </UserObject>
        <UserObject label="&lt;div style=&quot;font-size: 1px&quot;&gt;&lt;p style=&quot;text-align:center;margin-left:0;margin-right:0;margin-top:0px;margin-bottom:0px;text-indent:0;vertical-align:middle;direction:ltr;&quot;&gt;&lt;font style=&quot;font-size:13px;font-family:0;color:#323232;direction:ltr;letter-spacing:0px;line-height:120%;opacity:1&quot;&gt;checkpoint （巴拉巴拉，没具体看）&lt;/font&gt;&lt;/p&gt;&lt;/div&gt;" tags="Background" id="qSWOto1qGnR7KdLFDjG3-57">
          <mxCell style="verticalAlign=middle;align=center;overflow=width;vsdxID=57;fillColor=#d6d6d6;gradientColor=none;shape=stencil(nZBRDoQgDERP03+WHsHFe5iISyOCQdT19kIaIxq//Jtp3zTpAFaTaUYNUkwx+F6v1EYD+AUpyRkdKCYFqACrzgf9C352LfuxyWRWg1/yhT/nRE5IsZWuZtCSK8CPeI0e/hF+jV7AJM4PO7KWCyr390bSiNtEtQM=);strokeColor=#323232;strokeWidth=2;spacingTop=-3;spacingBottom=-3;spacingLeft=-3;spacingRight=-3;points=[];labelBackgroundColor=none;rounded=0;html=1;whiteSpace=wrap;" vertex="1" parent="1">
            <mxGeometry x="794" y="676" width="134" height="54" as="geometry" />
          </mxCell>
        </UserObject>
        <UserObject label="&lt;div style=&quot;font-size: 1px&quot;&gt;&lt;p style=&quot;text-align:center;margin-left:0;margin-right:0;margin-top:0px;margin-bottom:0px;text-indent:0;vertical-align:middle;direction:ltr;&quot;&gt;&lt;font style=&quot;font-size:13px;font-family:0;color:#323232;direction:ltr;letter-spacing:0px;line-height:120%;opacity:1&quot;&gt;加载报警Topo&lt;/font&gt;&lt;/p&gt;&lt;/div&gt;" tags="Background" id="qSWOto1qGnR7KdLFDjG3-58">
          <mxCell style="verticalAlign=middle;align=center;overflow=width;vsdxID=58;fillColor=#d6d6d6;gradientColor=none;shape=stencil(nZBRDoQgDERP03+WHsHFe5iISyOCQdT19kIaIxq//Jtp3zTpAFaTaUYNUkwx+F6v1EYD+AUpyRkdKCYFqACrzgf9C352LfuxyWRWg1/yhT/nRE5IsZWuZtCSK8CPeI0e/hF+jV7AJM4PO7KWCyr390bSiNtEtQM=);strokeColor=#323232;strokeWidth=2;spacingTop=-3;spacingBottom=-3;spacingLeft=-3;spacingRight=-3;points=[];labelBackgroundColor=none;rounded=0;html=1;whiteSpace=wrap;" vertex="1" parent="1">
            <mxGeometry x="616" y="309" width="134" height="54" as="geometry" />
          </mxCell>
        </UserObject>
        <UserObject label="&lt;div style=&quot;font-size: 1px&quot;&gt;&lt;p style=&quot;text-align:center;margin-left:0;margin-right:0;margin-top:0px;margin-bottom:0px;text-indent:0;vertical-align:middle;direction:ltr;&quot;&gt;&lt;font style=&quot;font-size:13px;font-family:0;color:#323232;direction:ltr;letter-spacing:0px;line-height:120%;opacity:1&quot;&gt;加载订阅&lt;/font&gt;&lt;/p&gt;&lt;/div&gt;" tags="Background" id="qSWOto1qGnR7KdLFDjG3-59">
          <mxCell style="verticalAlign=middle;align=center;overflow=width;vsdxID=59;fillColor=#d6d6d6;gradientColor=none;shape=stencil(nZBRDoQgDERP03+WHsHFe5iISyOCQdT19kIaIxq//Jtp3zTpAFaTaUYNUkwx+F6v1EYD+AUpyRkdKCYFqACrzgf9C352LfuxyWRWg1/yhT/nRE5IsZWuZtCSK8CPeI0e/hF+jV7AJM4PO7KWCyr390bSiNtEtQM=);strokeColor=#323232;strokeWidth=2;spacingTop=-3;spacingBottom=-3;spacingLeft=-3;spacingRight=-3;points=[];labelBackgroundColor=none;rounded=0;html=1;whiteSpace=wrap;" vertex="1" parent="1">
            <mxGeometry x="616" y="401" width="134" height="54" as="geometry" />
          </mxCell>
        </UserObject>
        <UserObject label="&lt;div style=&quot;font-size: 1px&quot;&gt;&lt;p style=&quot;text-align:center;margin-left:0;margin-right:0;margin-top:0px;margin-bottom:0px;text-indent:0;vertical-align:middle;direction:ltr;&quot;&gt;&lt;font style=&quot;font-size:13px;font-family:0;color:#323232;direction:ltr;letter-spacing:0px;line-height:120%;opacity:1&quot;&gt;加载值变化&lt;/font&gt;&lt;/p&gt;&lt;/div&gt;" tags="Background" id="qSWOto1qGnR7KdLFDjG3-60">
          <mxCell style="verticalAlign=middle;align=center;overflow=width;vsdxID=60;fillColor=#d6d6d6;gradientColor=none;shape=stencil(nZBRDoQgDERP03+WHsHFe5iISyOCQdT19kIaIxq//Jtp3zTpAFaTaUYNUkwx+F6v1EYD+AUpyRkdKCYFqACrzgf9C352LfuxyWRWg1/yhT/nRE5IsZWuZtCSK8CPeI0e/hF+jV7AJM4PO7KWCyr390bSiNtEtQM=);strokeColor=#323232;strokeWidth=2;spacingTop=-3;spacingBottom=-3;spacingLeft=-3;spacingRight=-3;points=[];labelBackgroundColor=none;rounded=0;html=1;whiteSpace=wrap;" vertex="1" parent="1">
            <mxGeometry x="616" y="496" width="134" height="54" as="geometry" />
          </mxCell>
        </UserObject>
        <UserObject label="&lt;div style=&quot;font-size: 1px&quot;&gt;&lt;p style=&quot;text-align:center;margin-left:0;margin-right:0;margin-top:0px;margin-bottom:0px;text-indent:0;vertical-align:middle;direction:ltr;&quot;&gt;&lt;font style=&quot;font-size:13px;font-family:0;color:#323232;direction:ltr;letter-spacing:0px;line-height:120%;opacity:1&quot;&gt;加载二次计算&lt;/font&gt;&lt;/p&gt;&lt;/div&gt;" tags="Background" id="qSWOto1qGnR7KdLFDjG3-61">
          <mxCell style="verticalAlign=middle;align=center;overflow=width;vsdxID=61;fillColor=#d6d6d6;gradientColor=none;shape=stencil(nZBRDoQgDERP03+WHsHFe5iISyOCQdT19kIaIxq//Jtp3zTpAFaTaUYNUkwx+F6v1EYD+AUpyRkdKCYFqACrzgf9C352LfuxyWRWg1/yhT/nRE5IsZWuZtCSK8CPeI0e/hF+jV7AJM4PO7KWCyr390bSiNtEtQM=);strokeColor=#323232;strokeWidth=2;spacingTop=-3;spacingBottom=-3;spacingLeft=-3;spacingRight=-3;points=[];labelBackgroundColor=none;rounded=0;html=1;whiteSpace=wrap;" vertex="1" parent="1">
            <mxGeometry x="616" y="586" width="134" height="54" as="geometry" />
          </mxCell>
        </UserObject>
        <UserObject label="&lt;div style=&quot;font-size: 1px&quot;&gt;&lt;p style=&quot;text-align:center;margin-left:0;margin-right:0;margin-top:0px;margin-bottom:0px;text-indent:0;vertical-align:middle;direction:ltr;&quot;&gt;&lt;font style=&quot;font-size:13px;font-family:0;color:#323232;direction:ltr;letter-spacing:0px;line-height:120%;opacity:1&quot;&gt;加载指标&lt;/font&gt;&lt;/p&gt;&lt;/div&gt;" tags="Background" id="qSWOto1qGnR7KdLFDjG3-62">
          <mxCell style="verticalAlign=middle;align=center;overflow=width;vsdxID=62;fillColor=#d6d6d6;gradientColor=none;shape=stencil(nZBRDoQgDERP03+WHsHFe5iISyOCQdT19kIaIxq//Jtp3zTpAFaTaUYNUkwx+F6v1EYD+AUpyRkdKCYFqACrzgf9C352LfuxyWRWg1/yhT/nRE5IsZWuZtCSK8CPeI0e/hF+jV7AJM4PO7KWCyr390bSiNtEtQM=);strokeColor=#323232;strokeWidth=2;spacingTop=-3;spacingBottom=-3;spacingLeft=-3;spacingRight=-3;points=[];labelBackgroundColor=none;rounded=0;html=1;whiteSpace=wrap;" vertex="1" parent="1">
            <mxGeometry x="616" y="678" width="134" height="54" as="geometry" />
          </mxCell>
        </UserObject>
        <UserObject label="&lt;div style=&quot;font-size: 1px&quot;&gt;&lt;p style=&quot;text-align:center;margin-left:0;margin-right:0;margin-top:0px;margin-bottom:0px;text-indent:0;vertical-align:middle;direction:ltr;&quot;&gt;&lt;font style=&quot;font-size:13px;font-family:0;color:#323232;direction:ltr;letter-spacing:0px;line-height:120%;opacity:1&quot;&gt;&lt;b&gt;OR&lt;/b&gt;&lt;/font&gt;&lt;/p&gt;&lt;/div&gt;" tags="Background" id="qSWOto1qGnR7KdLFDjG3-63">
          <mxCell style="verticalAlign=middle;align=center;overflow=width;vsdxID=63;fillColor=none;gradientColor=none;shape=stencil(nZBLDoAgDAVP0z3SIyjeg0SURgWD+Lu9EGL8xBW7N828Ji1gOWs5KeBs9s72aqPGa8AKOCejlSMfEqAALFvrVOfsYprEk4xmTKNd44Y99VhscHY8qU7iQOYhFixbvfhXzlZfYgj3hQG+54dReh2KEw==);strokeColor=none;strokeWidth=0;spacingTop=-3;spacingBottom=-3;spacingLeft=-3;spacingRight=-3;points=[];labelBackgroundColor=none;rounded=0;html=1;whiteSpace=wrap;" vertex="1" parent="1">
            <mxGeometry x="660" y="369" width="43" height="20" as="geometry" />
          </mxCell>
        </UserObject>
        <UserObject label="&lt;div style=&quot;font-size: 1px&quot;&gt;&lt;p style=&quot;text-align:center;margin-left:0;margin-right:0;margin-top:0px;margin-bottom:0px;text-indent:0;vertical-align:middle;direction:ltr;&quot;&gt;&lt;font style=&quot;font-size:13px;font-family:0;color:#323232;direction:ltr;letter-spacing:0px;line-height:120%;opacity:1&quot;&gt;&lt;b&gt;OR&lt;/b&gt;&lt;/font&gt;&lt;/p&gt;&lt;/div&gt;" tags="Background" id="qSWOto1qGnR7KdLFDjG3-64">
          <mxCell style="verticalAlign=middle;align=center;overflow=width;vsdxID=64;fillColor=none;gradientColor=none;shape=stencil(nZBLDoAgDAVP0z3SIyjeg0SURgWD+Lu9EGL8xBW7N828Ji1gOWs5KeBs9s72aqPGa8AKOCejlSMfEqAALFvrVOfsYprEk4xmTKNd44Y99VhscHY8qU7iQOYhFixbvfhXzlZfYgj3hQG+54dReh2KEw==);strokeColor=none;strokeWidth=0;spacingTop=-3;spacingBottom=-3;spacingLeft=-3;spacingRight=-3;points=[];labelBackgroundColor=none;rounded=0;html=1;whiteSpace=wrap;" vertex="1" parent="1">
            <mxGeometry x="660" y="466" width="43" height="20" as="geometry" />
          </mxCell>
        </UserObject>
        <UserObject label="&lt;div style=&quot;font-size: 1px&quot;&gt;&lt;p style=&quot;text-align:center;margin-left:0;margin-right:0;margin-top:0px;margin-bottom:0px;text-indent:0;vertical-align:middle;direction:ltr;&quot;&gt;&lt;font style=&quot;font-size:13px;font-family:0;color:#323232;direction:ltr;letter-spacing:0px;line-height:120%;opacity:1&quot;&gt;&lt;b&gt;OR&lt;/b&gt;&lt;/font&gt;&lt;/p&gt;&lt;/div&gt;" tags="Background" id="qSWOto1qGnR7KdLFDjG3-65">
          <mxCell style="verticalAlign=middle;align=center;overflow=width;vsdxID=65;fillColor=none;gradientColor=none;shape=stencil(nZBLDoAgDAVP0z3SIyjeg0SURgWD+Lu9EGL8xBW7N828Ji1gOWs5KeBs9s72aqPGa8AKOCejlSMfEqAALFvrVOfsYprEk4xmTKNd44Y99VhscHY8qU7iQOYhFixbvfhXzlZfYgj3hQG+54dReh2KEw==);strokeColor=none;strokeWidth=0;spacingTop=-3;spacingBottom=-3;spacingLeft=-3;spacingRight=-3;points=[];labelBackgroundColor=none;rounded=0;html=1;whiteSpace=wrap;" vertex="1" parent="1">
            <mxGeometry x="660" y="554" width="43" height="20" as="geometry" />
          </mxCell>
        </UserObject>
        <UserObject label="&lt;div style=&quot;font-size: 1px&quot;&gt;&lt;p style=&quot;text-align:center;margin-left:0;margin-right:0;margin-top:0px;margin-bottom:0px;text-indent:0;vertical-align:middle;direction:ltr;&quot;&gt;&lt;font style=&quot;font-size:13px;font-family:0;color:#323232;direction:ltr;letter-spacing:0px;line-height:120%;opacity:1&quot;&gt;&lt;b&gt;OR&lt;/b&gt;&lt;/font&gt;&lt;/p&gt;&lt;/div&gt;" tags="Background" id="qSWOto1qGnR7KdLFDjG3-66">
          <mxCell style="verticalAlign=middle;align=center;overflow=width;vsdxID=66;fillColor=none;gradientColor=none;shape=stencil(nZBLDoAgDAVP0z3SIyjeg0SURgWD+Lu9EGL8xBW7N828Ji1gOWs5KeBs9s72aqPGa8AKOCejlSMfEqAALFvrVOfsYprEk4xmTKNd44Y99VhscHY8qU7iQOYhFixbvfhXzlZfYgj3hQG+54dReh2KEw==);strokeColor=none;strokeWidth=0;spacingTop=-3;spacingBottom=-3;spacingLeft=-3;spacingRight=-3;points=[];labelBackgroundColor=none;rounded=0;html=1;whiteSpace=wrap;" vertex="1" parent="1">
            <mxGeometry x="660" y="649" width="43" height="20" as="geometry" />
          </mxCell>
        </UserObject>
        <UserObject label="&lt;div style=&quot;font-size: 1px&quot;&gt;&lt;p style=&quot;text-align:center;margin-left:0;margin-right:0;margin-top:0px;margin-bottom:0px;text-indent:0;vertical-align:middle;direction:ltr;&quot;&gt;&lt;font style=&quot;font-size:13px;font-family:0;color:#323232;direction:ltr;letter-spacing:0px;line-height:120%;opacity:1&quot;&gt;获取redis service&lt;br/&gt;&lt;/font&gt;&lt;font style=&quot;font-size:13px;font-family:0;color:#323232;direction:ltr;letter-spacing:0px;line-height:120%;opacity:1&quot;&gt;getRedisService&lt;/font&gt;&lt;/p&gt;&lt;/div&gt;" tags="Background" id="qSWOto1qGnR7KdLFDjG3-67">
          <mxCell style="verticalAlign=middle;align=center;overflow=width;vsdxID=67;fillColor=#d6d6d6;gradientColor=none;shape=stencil(nZBRDoQgDERP03+WHsHFe5iISyOCQdT19kIaIxq//Jtp3zTpAFaTaUYNUkwx+F6v1EYD+AUpyRkdKCYFqACrzgf9C352LfuxyWRWg1/yhT/nRE5IsZWuZtCSK8CPeI0e/hF+jV7AJM4PO7KWCyr390bSiNtEtQM=);strokeColor=#323232;strokeWidth=2;spacingTop=-3;spacingBottom=-3;spacingLeft=-3;spacingRight=-3;points=[];labelBackgroundColor=none;rounded=0;html=1;whiteSpace=wrap;" vertex="1" parent="1">
            <mxGeometry x="263" y="377" width="236" height="54" as="geometry" />
          </mxCell>
        </UserObject>
        <UserObject label="&lt;div style=&quot;font-size: 1px&quot;&gt;&lt;p style=&quot;text-align:center;margin-left:0;margin-right:0;margin-top:0px;margin-bottom:0px;text-indent:0;vertical-align:middle;direction:ltr;&quot;&gt;&lt;font style=&quot;font-size:13px;font-family:0;color:#323232;direction:ltr;letter-spacing:0px;line-height:120%;opacity:1&quot;&gt;刷新所有的告警到Redis&lt;br/&gt;&lt;br/&gt;&lt;/font&gt;&lt;font style=&quot;font-size:13px;font-family:0;color:#323232;direction:ltr;letter-spacing:0px;line-height:120%;opacity:1&quot;&gt;putAlarmConditionToRedis&lt;br/&gt;&lt;/font&gt;&lt;/p&gt;&lt;/div&gt;" tags="Background" id="qSWOto1qGnR7KdLFDjG3-68">
          <mxCell style="verticalAlign=middle;align=center;overflow=width;vsdxID=68;fillColor=#d6d6d6;gradientColor=none;shape=stencil(nZBRDoQgDERP03+WHsHFe5iISyOCQdT19kIaIxq//Jtp3zTpAFaTaUYNUkwx+F6v1EYD+AUpyRkdKCYFqACrzgf9C352LfuxyWRWg1/yhT/nRE5IsZWuZtCSK8CPeI0e/hF+jV7AJM4PO7KWCyr390bSiNtEtQM=);strokeColor=#323232;strokeWidth=2;spacingTop=-3;spacingBottom=-3;spacingLeft=-3;spacingRight=-3;points=[];labelBackgroundColor=none;rounded=0;html=1;whiteSpace=wrap;" vertex="1" parent="1">
            <mxGeometry x="263" y="471" width="236" height="54" as="geometry" />
          </mxCell>
        </UserObject>
        <UserObject label="&lt;div style=&quot;font-size: 1px&quot;&gt;&lt;p style=&quot;text-align:center;margin-left:0;margin-right:0;margin-top:0px;margin-bottom:0px;text-indent:0;vertical-align:middle;direction:ltr;&quot;&gt;&lt;font style=&quot;font-size:13px;font-family:0;color:#323232;direction:ltr;letter-spacing:0px;line-height:120%;opacity:1&quot;&gt;刷新所有的测点和告警的关系到Redis&lt;br/&gt;&lt;br/&gt;&lt;/font&gt;&lt;font style=&quot;font-size:13px;font-family:0;color:#323232;direction:ltr;letter-spacing:0px;line-height:120%;opacity:1&quot;&gt;putPointReferenceAlarmToRedis&lt;br/&gt;&lt;/font&gt;&lt;/p&gt;&lt;/div&gt;" tags="Background" id="qSWOto1qGnR7KdLFDjG3-69">
          <mxCell style="verticalAlign=middle;align=center;overflow=width;vsdxID=69;fillColor=#d6d6d6;gradientColor=none;shape=stencil(nZBRDoQgDERP03+WHsHFe5iISyOCQdT19kIaIxq//Jtp3zTpAFaTaUYNUkwx+F6v1EYD+AUpyRkdKCYFqACrzgf9C352LfuxyWRWg1/yhT/nRE5IsZWuZtCSK8CPeI0e/hF+jV7AJM4PO7KWCyr390bSiNtEtQM=);strokeColor=#323232;strokeWidth=2;spacingTop=-3;spacingBottom=-3;spacingLeft=-3;spacingRight=-3;points=[];labelBackgroundColor=none;rounded=0;html=1;whiteSpace=wrap;" vertex="1" parent="1">
            <mxGeometry x="263" y="557" width="236" height="54" as="geometry" />
          </mxCell>
        </UserObject>
        <UserObject label="&lt;div style=&quot;font-size: 1px&quot;&gt;&lt;p style=&quot;text-align:right;margin-left:0;margin-right:0;margin-top:0px;margin-bottom:0px;text-indent:0;vertical-align:middle;direction:ltr;&quot;&gt;&lt;font style=&quot;font-size:13px;font-family:0;color:#e74f4c;direction:ltr;letter-spacing:0px;line-height:120%;opacity:1&quot;&gt;&lt;b&gt;相当耗时间&lt;/b&gt;&lt;/font&gt;&lt;/p&gt;&lt;/div&gt;" tags="Background" id="qSWOto1qGnR7KdLFDjG3-70">
          <mxCell style="verticalAlign=middle;align=right;overflow=width;vsdxID=70;fillColor=none;gradientColor=none;shape=stencil(pZLNDoIwDMefZlcyOoZyRniPJUy3qBsOUHx7txR1Ti/EWz9+/bdNS1g9KNFLAnQYnT3Km+5GRdiOAGijpNOjtwhrCKv31smDs5Pp0O9FIIN1ttegMGNdTmmoAXpHH70W0cskuoDmmKtoxtlC5zFOZ/gm4NkgVjxpEzWPcYwUK/vzZIBNmW2LzwH4n5I/dipX7VStHOB1khnSGyWBRdIb7/PiZ8S59BV8CN+INQ8=);strokeColor=#323232;strokeWidth=2;spacingTop=-3;spacingBottom=-3;spacingLeft=-3;spacingRight=-3;points=[];labelBackgroundColor=none;rounded=0;html=1;whiteSpace=wrap;" vertex="1" parent="1">
            <mxGeometry x="157" y="473" width="95" height="51" as="geometry" />
          </mxCell>
        </UserObject>
        <UserObject label="" tags="Background" id="qSWOto1qGnR7KdLFDjG3-71">
          <mxCell style="vsdxID=71;fillColor=none;gradientColor=none;shape=stencil(nZBLDoAgDAVP0z3SIyjeg0SURgWD+Lu9EGL8xBW7N828Ji1gOWs5KeBs9s72aqPGa8AKOCejlSMfEqAALFvrVOfsYprEk4xmTKNd44Y99VhscHY8qU7iQOYhFixbvfhXzlZfYgj3hQG+54dReh2KEw==);strokeColor=none;strokeWidth=0;spacingTop=-3;spacingBottom=-3;spacingLeft=-3;spacingRight=-3;points=[];labelBackgroundColor=none;rounded=0;html=1;whiteSpace=wrap;" vertex="1" parent="1">
            <mxGeometry x="157" y="473" width="95" height="51" as="geometry" />
          </mxCell>
        </UserObject>
        <UserObject label="" tags="Background" id="qSWOto1qGnR7KdLFDjG3-72">
          <mxCell style="vsdxID=72;edgeStyle=none;startArrow=none;endArrow=block;startSize=5;endSize=5;strokeWidth=2;strokeColor=#323232;spacingTop=0;spacingBottom=0;spacingLeft=0;spacingRight=0;verticalAlign=middle;html=1;labelBackgroundColor=#ffffff;rounded=0;exitX=0.5023474178403756;exitY=1;exitDx=0;exitDy=0;exitPerimeter=0;entryX=0.5023474178403756;entryY=0;entryDx=0;entryDy=0;entryPerimeter=0;" edge="1" parent="1" source="qSWOto1qGnR7KdLFDjG3-43" target="qSWOto1qGnR7KdLFDjG3-45">
            <mxGeometry relative="1" as="geometry">
              <mxPoint y="123" as="offset" />
              <Array as="points">
                <mxPoint x="1078" y="473.5" />
                <mxPoint x="1078" y="473.5" />
              </Array>
            </mxGeometry>
          </mxCell>
        </UserObject>
        <mxCell id="qSWOto1qGnR7KdLFDjG3-73" vertex="1" parent="1">
          <mxGeometry x="1644" y="271" as="geometry" />
        </mxCell>
        <UserObject label="" tags="Background" id="qSWOto1qGnR7KdLFDjG3-74">
          <mxCell style="vsdxID=73;edgeStyle=none;dashed=1;startArrow=none;endArrow=block;startSize=5;endSize=5;strokeWidth=2;strokeColor=#323232;spacingTop=0;spacingBottom=0;spacingLeft=0;spacingRight=0;verticalAlign=middle;html=1;labelBackgroundColor=#ffffff;rounded=0;exitX=1;exitY=0.5;exitDx=0;exitDy=0;exitPerimeter=0;" edge="1" parent="1" source="qSWOto1qGnR7KdLFDjG3-44" target="qSWOto1qGnR7KdLFDjG3-73">
            <mxGeometry relative="1" as="geometry">
              <mxPoint x="-30" y="74" as="offset" />
              <Array as="points">
                <mxPoint x="1620.4" y="320" />
                <mxPoint x="1620.4" y="270.02" />
              </Array>
            </mxGeometry>
          </mxCell>
        </UserObject>
        <UserObject label="" tags="Background" id="qSWOto1qGnR7KdLFDjG3-75">
          <mxCell style="vsdxID=74;edgeStyle=none;startArrow=none;endArrow=block;startSize=5;endSize=5;strokeWidth=2;strokeColor=#323232;spacingTop=0;spacingBottom=0;spacingLeft=0;spacingRight=0;verticalAlign=middle;html=1;labelBackgroundColor=#ffffff;rounded=0;exitX=0.4978165938864629;exitY=1;exitDx=0;exitDy=0;exitPerimeter=0;entryX=0.4978165938864629;entryY=0;entryDx=0;entryDy=0;entryPerimeter=0;" edge="1" parent="1" source="qSWOto1qGnR7KdLFDjG3-49" target="qSWOto1qGnR7KdLFDjG3-50">
            <mxGeometry relative="1" as="geometry">
              <mxPoint y="111" as="offset" />
              <Array as="points">
                <mxPoint x="1767" y="370.5" />
                <mxPoint x="1767" y="370.5" />
              </Array>
            </mxGeometry>
          </mxCell>
        </UserObject>
        <UserObject label="" tags="Background" id="qSWOto1qGnR7KdLFDjG3-76">
          <mxCell style="vsdxID=75;edgeStyle=none;startArrow=none;endArrow=block;startSize=5;endSize=5;strokeWidth=2;strokeColor=#323232;spacingTop=0;spacingBottom=0;spacingLeft=0;spacingRight=0;verticalAlign=middle;html=1;labelBackgroundColor=#ffffff;rounded=0;exitX=0.5;exitY=1;exitDx=0;exitDy=0;exitPerimeter=0;entryX=0.5;entryY=0;entryDx=0;entryDy=0;entryPerimeter=0;" edge="1" parent="1" source="qSWOto1qGnR7KdLFDjG3-55" target="qSWOto1qGnR7KdLFDjG3-56">
            <mxGeometry relative="1" as="geometry">
              <mxPoint y="168" as="offset" />
              <Array as="points">
                <mxPoint x="861" y="429.49" />
                <mxPoint x="861" y="429.49" />
              </Array>
            </mxGeometry>
          </mxCell>
        </UserObject>
        <mxCell id="qSWOto1qGnR7KdLFDjG3-77" vertex="1" parent="1">
          <mxGeometry x="757" y="275" as="geometry" />
        </mxCell>
        <UserObject label="&lt;div style=&quot;font-size: 1px&quot;&gt;&lt;p style=&quot;text-align:center;margin-left:0;margin-right:0;margin-top:0px;margin-bottom:0px;text-indent:0;vertical-align:middle;direction:ltr;&quot;&gt;&lt;font style=&quot;font-size:17px;font-family:0;color:#323232;direction:ltr;letter-spacing:0px;line-height:120%;opacity:1&quot;&gt;&lt;b&gt;3.1&lt;/b&gt;&lt;/font&gt;&lt;/p&gt;&lt;/div&gt;" tags="Background" id="qSWOto1qGnR7KdLFDjG3-78">
          <mxCell style="vsdxID=76;edgeStyle=none;dashed=1;startArrow=none;endArrow=block;startSize=5;endSize=5;strokeWidth=2;strokeColor=#323232;spacingTop=0;spacingBottom=0;spacingLeft=0;spacingRight=0;verticalAlign=middle;html=1;labelBackgroundColor=#ffffff;rounded=0;align=center;exitX=0.007462686567164179;exitY=0.5555555555555556;exitDx=0;exitDy=0;exitPerimeter=0;" edge="1" parent="1" source="qSWOto1qGnR7KdLFDjG3-56" target="qSWOto1qGnR7KdLFDjG3-77">
            <mxGeometry relative="1" as="geometry">
              <mxPoint y="11" as="offset" />
              <Array as="points">
                <mxPoint x="771.68" y="526" />
                <mxPoint x="771.68" y="274.53" />
              </Array>
            </mxGeometry>
          </mxCell>
        </UserObject>
        <UserObject label="" tags="Background" id="qSWOto1qGnR7KdLFDjG3-79">
          <mxCell style="vsdxID=77;edgeStyle=none;startArrow=none;endArrow=block;startSize=5;endSize=5;strokeWidth=2;strokeColor=#323232;spacingTop=0;spacingBottom=0;spacingLeft=0;spacingRight=0;verticalAlign=middle;html=1;labelBackgroundColor=#ffffff;rounded=0;exitX=0.5023474178403756;exitY=1;exitDx=0;exitDy=0;exitPerimeter=0;entryX=0.5023474178403756;entryY=0;entryDx=0;entryDy=0;entryPerimeter=0;" edge="1" parent="1" source="qSWOto1qGnR7KdLFDjG3-45" target="qSWOto1qGnR7KdLFDjG3-46">
            <mxGeometry relative="1" as="geometry">
              <mxPoint y="123" as="offset" />
              <Array as="points">
                <mxPoint x="1078" y="572.5" />
                <mxPoint x="1078" y="572.5" />
              </Array>
            </mxGeometry>
          </mxCell>
        </UserObject>
        <UserObject label="" tags="Background" id="qSWOto1qGnR7KdLFDjG3-80">
          <mxCell style="vsdxID=78;edgeStyle=none;startArrow=none;endArrow=block;startSize=5;endSize=5;strokeWidth=2;strokeColor=#323232;spacingTop=0;spacingBottom=0;spacingLeft=0;spacingRight=0;verticalAlign=middle;html=1;labelBackgroundColor=#ffffff;rounded=0;exitX=0.5;exitY=1;exitDx=0;exitDy=0;exitPerimeter=0;entryX=0.5;entryY=0;entryDx=0;entryDy=0;entryPerimeter=0;" edge="1" parent="1" source="qSWOto1qGnR7KdLFDjG3-68" target="qSWOto1qGnR7KdLFDjG3-69">
            <mxGeometry relative="1" as="geometry">
              <mxPoint y="117" as="offset" />
              <Array as="points">
                <mxPoint x="381" y="541" />
                <mxPoint x="381" y="541" />
              </Array>
            </mxGeometry>
          </mxCell>
        </UserObject>
        <UserObject label="" tags="Background" id="qSWOto1qGnR7KdLFDjG3-81">
          <mxCell style="vsdxID=79;edgeStyle=none;startArrow=none;endArrow=block;startSize=5;endSize=5;strokeWidth=2;strokeColor=#323232;spacingTop=0;spacingBottom=0;spacingLeft=0;spacingRight=0;verticalAlign=middle;html=1;labelBackgroundColor=#ffffff;rounded=0;exitX=0.5021834061135371;exitY=1;exitDx=0;exitDy=0;exitPerimeter=0;entryX=0.5021834061135371;entryY=0;entryDx=0;entryDy=0;entryPerimeter=0;" edge="1" parent="1" source="qSWOto1qGnR7KdLFDjG3-53" target="qSWOto1qGnR7KdLFDjG3-54">
            <mxGeometry relative="1" as="geometry">
              <mxPoint y="116" as="offset" />
              <Array as="points">
                <mxPoint x="1477" y="679" />
                <mxPoint x="1477" y="679" />
              </Array>
            </mxGeometry>
          </mxCell>
        </UserObject>
        <UserObject label="" tags="Background" id="qSWOto1qGnR7KdLFDjG3-82">
          <mxCell style="vsdxID=80;edgeStyle=none;startArrow=none;endArrow=block;startSize=5;endSize=5;strokeWidth=2;strokeColor=#323232;spacingTop=0;spacingBottom=0;spacingLeft=0;spacingRight=0;verticalAlign=middle;html=1;labelBackgroundColor=#ffffff;rounded=0;exitX=0.5;exitY=1;exitDx=0;exitDy=0;exitPerimeter=0;entryX=0.502127659574468;entryY=0;entryDx=0;entryDy=0;entryPerimeter=0;" edge="1" parent="1" source="qSWOto1qGnR7KdLFDjG3-51" target="qSWOto1qGnR7KdLFDjG3-52">
            <mxGeometry relative="1" as="geometry">
              <mxPoint y="112" as="offset" />
              <Array as="points">
                <mxPoint x="1767" y="526" />
                <mxPoint x="1767" y="526" />
              </Array>
            </mxGeometry>
          </mxCell>
        </UserObject>
        <mxCell id="qSWOto1qGnR7KdLFDjG3-83" vertex="1" parent="1">
          <mxGeometry x="915" y="269" as="geometry" />
        </mxCell>
        <UserObject label="&lt;div style=&quot;font-size: 1px&quot;&gt;&lt;p style=&quot;text-align:center;margin-left:0;margin-right:0;margin-top:0px;margin-bottom:0px;text-indent:0;vertical-align:middle;direction:ltr;&quot;&gt;&lt;font style=&quot;font-size:17px;font-family:0;color:#323232;direction:ltr;letter-spacing:0px;line-height:120%;opacity:1&quot;&gt;&lt;b&gt;3&lt;/b&gt;&lt;/font&gt;&lt;/p&gt;&lt;/div&gt;" tags="Background" id="qSWOto1qGnR7KdLFDjG3-84">
          <mxCell style="vsdxID=81;edgeStyle=none;dashed=1;startArrow=none;endArrow=block;startSize=5;endSize=5;strokeWidth=2;strokeColor=#323232;spacingTop=0;spacingBottom=0;spacingLeft=0;spacingRight=0;verticalAlign=middle;html=1;labelBackgroundColor=#ffffff;rounded=0;align=center;exitX=0;exitY=0.5;exitDx=0;exitDy=0;exitPerimeter=0;" edge="1" parent="1" source="qSWOto1qGnR7KdLFDjG3-47" target="qSWOto1qGnR7KdLFDjG3-83">
            <mxGeometry relative="1" as="geometry">
              <mxPoint x="-1" y="11" as="offset" />
              <Array as="points">
                <mxPoint x="942.94" y="717" />
                <mxPoint x="942.94" y="268.94" />
              </Array>
            </mxGeometry>
          </mxCell>
        </UserObject>
        <UserObject label="" tags="Background" id="qSWOto1qGnR7KdLFDjG3-85">
          <mxCell style="vsdxID=82;edgeStyle=none;startArrow=none;endArrow=block;startSize=5;endSize=5;strokeWidth=2;strokeColor=#323232;spacingTop=0;spacingBottom=0;spacingLeft=0;spacingRight=0;verticalAlign=middle;html=1;labelBackgroundColor=#ffffff;rounded=0;exitX=0.5021834061135371;exitY=1;exitDx=0;exitDy=0;exitPerimeter=0;entryX=0.5021834061135371;entryY=0;entryDx=0;entryDy=0;entryPerimeter=0;" edge="1" parent="1" source="qSWOto1qGnR7KdLFDjG3-44" target="qSWOto1qGnR7KdLFDjG3-48">
            <mxGeometry relative="1" as="geometry">
              <mxPoint y="113" as="offset" />
              <Array as="points">
                <mxPoint x="1477" y="358.25" />
                <mxPoint x="1477" y="358.25" />
              </Array>
            </mxGeometry>
          </mxCell>
        </UserObject>
        <mxCell id="qSWOto1qGnR7KdLFDjG3-86" vertex="1" parent="1">
          <mxGeometry x="1352" y="270" as="geometry" />
        </mxCell>
        <UserObject label="&lt;div style=&quot;font-size: 1px&quot;&gt;&lt;p style=&quot;text-align:center;margin-left:0;margin-right:0;margin-top:0px;margin-bottom:0px;text-indent:0;vertical-align:middle;direction:ltr;&quot;&gt;&lt;font style=&quot;font-size:17px;font-family:0;color:#323232;direction:ltr;letter-spacing:0px;line-height:120%;opacity:1&quot;&gt;&lt;b&gt;1&lt;/b&gt;&lt;/font&gt;&lt;/p&gt;&lt;/div&gt;" tags="Background" id="qSWOto1qGnR7KdLFDjG3-87">
          <mxCell style="vsdxID=83;edgeStyle=none;dashed=1;startArrow=none;endArrow=block;startSize=5;endSize=5;strokeWidth=2;strokeColor=#323232;spacingTop=0;spacingBottom=0;spacingLeft=0;spacingRight=0;verticalAlign=middle;html=1;labelBackgroundColor=#ffffff;rounded=0;align=center;exitX=1;exitY=0.5;exitDx=0;exitDy=0;exitPerimeter=0;" edge="1" parent="1" source="qSWOto1qGnR7KdLFDjG3-45" target="qSWOto1qGnR7KdLFDjG3-86">
            <mxGeometry relative="1" as="geometry">
              <mxPoint y="-12" as="offset" />
              <Array as="points">
                <mxPoint x="1279.26" y="523" />
                <mxPoint x="1279.26" y="270" />
              </Array>
            </mxGeometry>
          </mxCell>
        </UserObject>
        <UserObject label="" tags="Background" id="qSWOto1qGnR7KdLFDjG3-88">
          <mxCell style="vsdxID=84;edgeStyle=none;startArrow=none;endArrow=block;startSize=5;endSize=5;strokeWidth=2;strokeColor=#323232;spacingTop=0;spacingBottom=0;spacingLeft=0;spacingRight=0;verticalAlign=middle;html=1;labelBackgroundColor=#ffffff;rounded=0;exitX=0.5023474178403756;exitY=1;exitDx=0;exitDy=0;exitPerimeter=0;entryX=0.5023474178403756;entryY=0;entryDx=0;entryDy=0;entryPerimeter=0;" edge="1" parent="1" source="qSWOto1qGnR7KdLFDjG3-42" target="qSWOto1qGnR7KdLFDjG3-43">
            <mxGeometry relative="1" as="geometry">
              <mxPoint y="121" as="offset" />
              <Array as="points">
                <mxPoint x="1078" y="376.5" />
                <mxPoint x="1078" y="376.5" />
              </Array>
            </mxGeometry>
          </mxCell>
        </UserObject>
        <mxCell id="qSWOto1qGnR7KdLFDjG3-89" vertex="1" parent="1">
          <mxGeometry x="507" y="336" as="geometry" />
        </mxCell>
        <UserObject label="&lt;div style=&quot;font-size: 1px&quot;&gt;&lt;p style=&quot;text-align:center;margin-left:0;margin-right:0;margin-top:0px;margin-bottom:0px;text-indent:0;vertical-align:middle;direction:ltr;&quot;&gt;&lt;font style=&quot;font-size:17px;font-family:0;color:#323232;direction:ltr;letter-spacing:0px;line-height:120%;opacity:1&quot;&gt;&lt;b&gt;3.1.1&lt;/b&gt;&lt;/font&gt;&lt;/p&gt;&lt;/div&gt;" tags="Background" id="qSWOto1qGnR7KdLFDjG3-90">
          <mxCell style="vsdxID=85;edgeStyle=none;dashed=1;startArrow=none;endArrow=block;startSize=5;endSize=5;strokeWidth=2;strokeColor=#323232;spacingTop=0;spacingBottom=0;spacingLeft=0;spacingRight=0;verticalAlign=middle;html=1;labelBackgroundColor=#ffffff;rounded=0;align=center;exitX=0;exitY=0.5;exitDx=0;exitDy=0;exitPerimeter=0;" edge="1" parent="1" source="qSWOto1qGnR7KdLFDjG3-58" target="qSWOto1qGnR7KdLFDjG3-89">
            <mxGeometry relative="1" as="geometry">
              <mxPoint y="-1" as="offset" />
              <Array as="points">
                <mxPoint x="561.18" y="336" />
                <mxPoint x="561.18" y="336" />
              </Array>
            </mxGeometry>
          </mxCell>
        </UserObject>
        <UserObject label="" tags="Background" id="qSWOto1qGnR7KdLFDjG3-91">
          <mxCell style="vsdxID=86;edgeStyle=none;startArrow=none;endArrow=block;startSize=5;endSize=5;strokeWidth=2;strokeColor=#323232;spacingTop=0;spacingBottom=0;spacingLeft=0;spacingRight=0;verticalAlign=middle;html=1;labelBackgroundColor=#ffffff;rounded=0;exitX=0.5;exitY=1;exitDx=0;exitDy=0;exitPerimeter=0;entryX=0.5;entryY=0;entryDx=0;entryDy=0;entryPerimeter=0;" edge="1" parent="1" source="qSWOto1qGnR7KdLFDjG3-67" target="qSWOto1qGnR7KdLFDjG3-68">
            <mxGeometry relative="1" as="geometry">
              <mxPoint y="121" as="offset" />
              <Array as="points">
                <mxPoint x="381" y="451" />
                <mxPoint x="381" y="451" />
              </Array>
            </mxGeometry>
          </mxCell>
        </UserObject>
        <UserObject label="" tags="Background" id="qSWOto1qGnR7KdLFDjG3-92">
          <mxCell style="vsdxID=87;edgeStyle=none;startArrow=none;endArrow=block;startSize=5;endSize=5;strokeWidth=2;strokeColor=#323232;spacingTop=0;spacingBottom=0;spacingLeft=0;spacingRight=0;verticalAlign=middle;html=1;labelBackgroundColor=#ffffff;rounded=0;exitX=0.5;exitY=1;exitDx=0;exitDy=0;exitPerimeter=0;entryX=0.5;entryY=0;entryDx=0;entryDy=0;entryPerimeter=0;" edge="1" parent="1" source="qSWOto1qGnR7KdLFDjG3-56" target="qSWOto1qGnR7KdLFDjG3-57">
            <mxGeometry relative="1" as="geometry">
              <mxPoint y="165" as="offset" />
              <Array as="points">
                <mxPoint x="861" y="613.26" />
                <mxPoint x="861" y="613.26" />
              </Array>
            </mxGeometry>
          </mxCell>
        </UserObject>
        <UserObject label="" tags="Background" id="qSWOto1qGnR7KdLFDjG3-93">
          <mxCell style="vsdxID=88;edgeStyle=none;startArrow=none;endArrow=block;startSize=5;endSize=5;strokeWidth=2;strokeColor=#323232;spacingTop=0;spacingBottom=0;spacingLeft=0;spacingRight=0;verticalAlign=middle;html=1;labelBackgroundColor=#ffffff;rounded=0;exitX=0.4978165938864629;exitY=1;exitDx=0;exitDy=0;exitPerimeter=0;entryX=0.5;entryY=0;entryDx=0;entryDy=0;entryPerimeter=0;" edge="1" parent="1" source="qSWOto1qGnR7KdLFDjG3-50" target="qSWOto1qGnR7KdLFDjG3-51">
            <mxGeometry relative="1" as="geometry">
              <mxPoint y="114" as="offset" />
              <Array as="points">
                <mxPoint x="1767" y="448" />
                <mxPoint x="1767" y="448" />
              </Array>
            </mxGeometry>
          </mxCell>
        </UserObject>
        <UserObject label="" tags="Background" id="qSWOto1qGnR7KdLFDjG3-94">
          <mxCell style="vsdxID=89;edgeStyle=none;startArrow=none;endArrow=block;startSize=5;endSize=5;strokeWidth=2;strokeColor=#323232;spacingTop=0;spacingBottom=0;spacingLeft=0;spacingRight=0;verticalAlign=middle;html=1;labelBackgroundColor=#ffffff;rounded=0;exitX=0.5023474178403756;exitY=1;exitDx=0;exitDy=0;exitPerimeter=0;entryX=0.5023474178403756;entryY=0;entryDx=0;entryDy=0;entryPerimeter=0;" edge="1" parent="1" source="qSWOto1qGnR7KdLFDjG3-46" target="qSWOto1qGnR7KdLFDjG3-47">
            <mxGeometry relative="1" as="geometry">
              <mxPoint y="121" as="offset" />
              <Array as="points">
                <mxPoint x="1078" y="669.5" />
                <mxPoint x="1078" y="669.5" />
              </Array>
            </mxGeometry>
          </mxCell>
        </UserObject>
        <mxCell id="qSWOto1qGnR7KdLFDjG3-95" vertex="1" parent="1">
          <mxGeometry x="1353" y="542" as="geometry" />
        </mxCell>
        <UserObject label="&lt;div style=&quot;font-size: 1px&quot;&gt;&lt;p style=&quot;text-align:center;margin-left:0;margin-right:0;margin-top:0px;margin-bottom:0px;text-indent:0;vertical-align:middle;direction:ltr;&quot;&gt;&lt;font style=&quot;font-size:17px;font-family:0;color:#323232;direction:ltr;letter-spacing:0px;line-height:120%;opacity:1&quot;&gt;&lt;b&gt;2&lt;/b&gt;&lt;/font&gt;&lt;/p&gt;&lt;/div&gt;" tags="Background" id="qSWOto1qGnR7KdLFDjG3-96">
          <mxCell style="vsdxID=90;edgeStyle=none;dashed=1;startArrow=none;endArrow=block;startSize=5;endSize=5;strokeWidth=2;strokeColor=#323232;spacingTop=0;spacingBottom=0;spacingLeft=0;spacingRight=0;verticalAlign=middle;html=1;labelBackgroundColor=#ffffff;rounded=0;align=center;exitX=1;exitY=0.5;exitDx=0;exitDy=0;exitPerimeter=0;" edge="1" parent="1" source="qSWOto1qGnR7KdLFDjG3-46" target="qSWOto1qGnR7KdLFDjG3-95">
            <mxGeometry relative="1" as="geometry">
              <mxPoint x="25" y="-52" as="offset" />
              <Array as="points">
                <mxPoint x="1279.79" y="622" />
                <mxPoint x="1279.79" y="541.82" />
              </Array>
            </mxGeometry>
          </mxCell>
        </UserObject>
      </root>
    </mxGraphModel>
  </diagram>
</mxfile>
